<svg width="17" height="20" viewBox="0 0 17 20" fill="none" xmlns="http://www.w3.org/2000/svg">
<path d="M14.375 11.18V8C14.3736 6.58312 13.8708 5.21247 12.9556 4.13077C12.0405 3.04908 10.7721 2.32615 9.375 2.09V1C9.375 0.734784 9.26964 0.48043 9.08211 0.292893C8.89457 0.105357 8.64022 0 8.375 0C8.10978 0 7.85543 0.105357 7.66789 0.292893C7.48036 0.48043 7.375 0.734784 7.375 1V2.09C5.97794 2.32615 4.70952 3.04908 3.79439 4.13077C2.87925 5.21247 2.37644 6.58312 2.375 8V11.18C1.79145 11.3863 1.286 11.7681 0.927938 12.2729C0.569879 12.7778 0.37674 13.3811 0.375 14V16C0.375 16.2652 0.480357 16.5196 0.667893 16.7071C0.85543 16.8946 1.10978 17 1.375 17H4.515C4.74528 17.8474 5.248 18.5954 5.9456 19.1287C6.64319 19.6621 7.4969 19.951 8.375 19.951C9.2531 19.951 10.1068 19.6621 10.8044 19.1287C11.502 18.5954 12.0047 17.8474 12.235 17H15.375C15.6402 17 15.8946 16.8946 16.0821 16.7071C16.2696 16.5196 16.375 16.2652 16.375 16V14C16.3733 13.3811 16.1801 12.7778 15.8221 12.2729C15.464 11.7681 14.9585 11.3863 14.375 11.18ZM4.375 8C4.375 6.93913 4.79643 5.92172 5.54657 5.17157C6.29672 4.42143 7.31413 4 8.375 4C9.43587 4 10.4533 4.42143 11.2034 5.17157C11.9536 5.92172 12.375 6.93913 12.375 8V11H4.375V8ZM8.375 18C8.02597 17.9979 7.68357 17.9045 7.38183 17.7291C7.08009 17.5536 6.82951 17.3023 6.655 17H10.095C9.92049 17.3023 9.66991 17.5536 9.36817 17.7291C9.06643 17.9045 8.72403 17.9979 8.375 18ZM14.375 15H2.375V14C2.375 13.7348 2.48036 13.4804 2.66789 13.2929C2.85543 13.1054 3.10978 13 3.375 13H13.375C13.6402 13 13.8946 13.1054 14.0821 13.2929C14.2696 13.4804 14.375 13.7348 14.375 14V15Z" fill="#E5E5E5"/>
</svg>
