<svg width="18" height="18" viewBox="0 0 18 18" fill="none" xmlns="http://www.w3.org/2000/svg">
<path d="M11.5 8.16669H9.8333V4.83335C9.8333 4.61234 9.7455 4.40038 9.58922 4.2441C9.43294 4.08782 9.22098 4.00002 8.99996 4.00002C8.77895 4.00002 8.56699 4.08782 8.41071 4.2441C8.25443 4.40038 8.16663 4.61234 8.16663 4.83335V9.00002C8.16663 9.22103 8.25443 9.433 8.41071 9.58928C8.56699 9.74556 8.77895 9.83335 8.99996 9.83335H11.5C11.721 9.83335 11.9329 9.74556 12.0892 9.58928C12.2455 9.433 12.3333 9.22103 12.3333 9.00002C12.3333 8.77901 12.2455 8.56705 12.0892 8.41077C11.9329 8.25449 11.721 8.16669 11.5 8.16669ZM8.99996 0.666687C7.35179 0.666687 5.74062 1.15543 4.37021 2.07111C2.9998 2.98679 1.9317 4.28827 1.30097 5.81099C0.670237 7.33371 0.505209 9.00926 0.826752 10.6258C1.1483 12.2423 1.94197 13.7271 3.10741 14.8926C4.27284 16.058 5.7577 16.8517 7.37421 17.1732C8.99072 17.4948 10.6663 17.3297 12.189 16.699C13.7117 16.0683 15.0132 15.0002 15.9289 13.6298C16.8446 12.2594 17.3333 10.6482 17.3333 9.00002C17.3333 7.90567 17.1177 6.82204 16.699 5.81099C16.2802 4.79994 15.6663 3.88129 14.8925 3.10746C14.1187 2.33364 13.2 1.71981 12.189 1.30102C11.1779 0.882235 10.0943 0.666687 8.99996 0.666687ZM8.99996 15.6667C7.68142 15.6667 6.39249 15.2757 5.29616 14.5432C4.19983 13.8106 3.34535 12.7694 2.84077 11.5512C2.33618 10.3331 2.20416 8.99263 2.46139 7.69942C2.71863 6.40621 3.35357 5.21833 4.28592 4.28598C5.21827 3.35363 6.40615 2.71869 7.69936 2.46145C8.99257 2.20422 10.333 2.33624 11.5512 2.84082C12.7694 3.34541 13.8105 4.19989 14.5431 5.29622C15.2756 6.39255 15.6666 7.68148 15.6666 9.00002C15.6666 10.7681 14.9643 12.4638 13.714 13.7141C12.4638 14.9643 10.7681 15.6667 8.99996 15.6667Z" fill="#34C759"/>
</svg>
