<svg width="26" height="32" viewBox="0 0 26 32" fill="none" xmlns="http://www.w3.org/2000/svg">
<path d="M22.4999 31.8334H3.49992C1.75102 31.8334 0.333252 30.4157 0.333252 28.6668V3.33342C0.333252 1.58451 1.75102 0.166748 3.49992 0.166748H14.5833C14.6005 0.167496 14.6176 0.170695 14.6339 0.176248C14.6494 0.181025 14.6653 0.184209 14.6814 0.185748C14.821 0.194699 14.9589 0.221845 15.0915 0.266498L15.1358 0.280748C15.1717 0.292911 15.2067 0.30773 15.2403 0.325081C15.4128 0.401752 15.57 0.50904 15.7043 0.641748L25.2043 10.1417C25.337 10.276 25.4442 10.4332 25.5209 10.6057C25.5368 10.6405 25.5478 10.6769 25.5605 10.7133L25.5748 10.7545C25.619 10.8865 25.6451 11.024 25.6523 11.163C25.6548 11.1775 25.6585 11.1918 25.6634 11.2057C25.6662 11.2204 25.6673 11.2352 25.6668 11.2501V28.6668C25.6668 30.4157 24.2488 31.8334 22.4999 31.8334ZM3.49992 3.33342V28.6668H22.4999V12.8334H14.5833C13.7088 12.8334 12.9999 12.1245 12.9999 11.2501V3.33342H3.49992ZM16.1666 5.57225V9.66675H20.2611L16.1666 5.57225ZM17.7499 22.3334H8.24992V19.1667H17.7499V22.3334Z" fill="#2E3A59"/>
</svg>
