<svg width="18" height="22" viewBox="0 0 18 22" fill="none" xmlns="http://www.w3.org/2000/svg">
<path d="M15.0001 3.48C13.4088 1.8887 11.2505 0.99472 9.00005 0.99472C6.74961 0.99472 4.59135 1.8887 3.00005 3.48C1.40875 5.0713 0.514771 7.22957 0.514771 9.48C0.51477 11.7304 1.40875 13.8887 3.00005 15.48L8.27005 20.76C8.36301 20.8537 8.47362 20.9281 8.59548 20.9789C8.71733 21.0297 8.84804 21.0558 8.98005 21.0558C9.11206 21.0558 9.24277 21.0297 9.36463 20.9789C9.48649 20.9281 9.59709 20.8537 9.69005 20.76L15.0001 15.43C16.5847 13.8453 17.4749 11.6961 17.4749 9.455C17.4749 7.21395 16.5847 5.06468 15.0001 3.48V3.48ZM13.5701 14L9.00005 18.59L4.43005 14C3.5272 13.0963 2.91253 11.9452 2.66375 10.6923C2.41497 9.43934 2.54324 8.14075 3.03236 6.96068C3.52147 5.78062 4.34947 4.77205 5.41168 4.06248C6.4739 3.35291 7.72264 2.97418 9.00005 2.97418C10.2775 2.97418 11.5262 3.35291 12.5884 4.06248C13.6506 4.77205 14.4786 5.78062 14.9677 6.96068C15.4569 8.14075 15.5851 9.43934 15.3364 10.6923C15.0876 11.9452 14.4729 13.0963 13.5701 14V14ZM6.00005 6.41C5.19277 7.21977 4.73945 8.31657 4.73945 9.46C4.73945 10.6034 5.19277 11.7002 6.00005 12.51C6.59981 13.1108 7.36364 13.5211 8.1957 13.6894C9.02776 13.8577 9.891 13.7766 10.6771 13.4562C11.4632 13.1357 12.1372 12.5903 12.6145 11.8883C13.0918 11.1862 13.3512 10.3589 13.3601 9.51C13.3646 8.94321 13.2554 8.38126 13.039 7.85739C12.8225 7.33352 12.5033 6.85836 12.1001 6.46C11.7037 6.05458 11.2311 5.73154 10.7095 5.50947C10.1878 5.2874 9.62739 5.17068 9.06045 5.16603C8.49351 5.16138 7.93125 5.2689 7.40602 5.48239C6.8808 5.69588 6.40297 6.01113 6.00005 6.41V6.41ZM10.6901 11.09C10.3111 11.4747 9.81026 11.7159 9.27318 11.7723C8.7361 11.8286 8.19612 11.6966 7.74556 11.3989C7.295 11.1012 6.96185 10.6562 6.80306 10.1401C6.64427 9.62393 6.6697 9.06864 6.87501 8.56916C7.08032 8.06967 7.45275 7.65702 7.92864 7.40174C8.40452 7.14646 8.9543 7.06441 9.48399 7.16962C10.0137 7.27483 10.4904 7.56076 10.8326 7.97853C11.1748 8.3963 11.3612 8.91997 11.3601 9.46C11.3455 10.0773 11.0865 10.6635 10.6401 11.09H10.6901Z" fill="#003162"/>
</svg>
