<svg width="21" height="22" viewBox="0 0 21 22" fill="none" xmlns="http://www.w3.org/2000/svg">
<path d="M13.835 11.71C14.8154 10.9387 15.531 9.88092 15.8822 8.68394C16.2335 7.48697 16.2029 6.21027 15.7948 5.03147C15.3867 3.85267 14.6213 2.83039 13.6051 2.10686C12.5889 1.38332 11.3724 0.994507 10.125 0.994507C8.87755 0.994507 7.66111 1.38332 6.64493 2.10686C5.62874 2.83039 4.86334 3.85267 4.45521 5.03147C4.04708 6.21027 4.01651 7.48697 4.36776 8.68394C4.71901 9.88092 5.4346 10.9387 6.415 11.71C4.73507 12.383 3.26928 13.4994 2.17389 14.9399C1.07849 16.3805 0.39456 18.0913 0.194997 19.89C0.180551 20.0213 0.192113 20.1542 0.229022 20.2811C0.265931 20.4079 0.327464 20.5263 0.410108 20.6293C0.577016 20.8375 0.81978 20.9708 1.085 21C1.35021 21.0292 1.61616 20.9518 1.82432 20.7849C2.03249 20.618 2.16582 20.3752 2.195 20.11C2.41458 18.1552 3.34668 16.3498 4.81322 15.0388C6.27975 13.7278 8.1779 13.003 10.145 13.003C12.1121 13.003 14.0102 13.7278 15.4768 15.0388C16.9433 16.3498 17.8754 18.1552 18.095 20.11C18.1222 20.3557 18.2394 20.5827 18.4241 20.747C18.6088 20.9114 18.8478 21.0015 19.095 21H19.205C19.4671 20.9698 19.7067 20.8373 19.8716 20.6313C20.0364 20.4252 20.1131 20.1624 20.085 19.9C19.8845 18.0962 19.1969 16.381 18.0958 14.9382C16.9948 13.4954 15.5219 12.3795 13.835 11.71ZM10.125 11C9.33387 11 8.56051 10.7654 7.90272 10.3259C7.24492 9.88636 6.73223 9.26164 6.42948 8.53074C6.12673 7.79983 6.04751 6.99557 6.20186 6.21964C6.3562 5.44372 6.73716 4.73099 7.29657 4.17158C7.85598 3.61217 8.56871 3.2312 9.34464 3.07686C10.1206 2.92252 10.9248 3.00173 11.6557 3.30448C12.3866 3.60724 13.0113 4.11993 13.4509 4.77772C13.8904 5.43552 14.125 6.20888 14.125 7C14.125 8.06087 13.7036 9.07828 12.9534 9.82843C12.2033 10.5786 11.1859 11 10.125 11Z" fill="#E5E5E5"/>
</svg>
