<svg width="122" height="123" viewBox="0 0 122 123" fill="none" xmlns="http://www.w3.org/2000/svg">
<circle cx="40.5" cy="76.5" r="40.5" fill="#FFB8B8" fill-opacity="0.44"/>
<circle cx="81.5" cy="76.5" r="40.5" fill="#FFF500" fill-opacity="0.21"/>
<circle cx="40.5" cy="40.5" r="40.5" fill="#FFB8B8" fill-opacity="0.44"/>
<circle cx="81.5" cy="40.5" r="40.5" fill="#FFB8B8" fill-opacity="0.44"/>
<path d="M95.2144 122.605C95.0888 122.738 94.9583 122.869 94.8261 123H79.7572C79.6333 122.872 79.5111 122.741 79.3888 122.605C79.3839 122.6 79.3789 122.594 79.374 122.589C77.7369 120.767 76.7061 118.118 76.0635 115.326C76.0222 115.157 75.9859 114.986 75.9495 114.813C75.781 114.028 75.6439 113.235 75.5316 112.449C75.5118 112.313 75.4919 112.176 75.4754 112.04C75.3234 110.91 75.221 109.799 75.1549 108.755C75.1467 108.621 75.1384 108.49 75.1302 108.358C75.0092 106.281 75.008 104.197 75.1269 102.12C75.1269 102.12 75.1467 102.12 75.1847 102.121C75.2954 102.126 75.5613 102.138 75.9528 102.161C77.0315 102.227 79.0667 102.393 81.4604 102.785C81.5909 102.806 81.7231 102.83 81.8552 102.853C83.8798 103.189 85.8769 103.675 87.8302 104.306C87.9525 104.348 88.0731 104.389 88.1953 104.431L88.197 104.439L89.6953 111.991L90.3164 105.269C90.8103 105.493 91.291 105.732 91.7519 105.987C91.8808 106.059 92.0063 106.13 92.1302 106.203C93.1839 106.803 94.1403 107.56 94.9666 108.45C99.8811 113.92 98.8288 118.81 95.2144 122.605Z" fill="#F2F2F2"/>
<path d="M88.9171 113.03L89.1784 113.32C92.198 116.715 94.0001 119.866 94.5553 122.732C94.5641 122.773 94.5702 122.815 94.579 122.857L94.3858 122.893L94.1996 122.926C93.633 119.802 91.5233 116.572 88.8903 113.61C88.8064 113.514 88.7211 113.416 88.633 113.321C87.5074 112.077 86.2972 110.884 85.0735 109.768C84.9795 109.681 84.8828 109.594 84.7862 109.507C83.1634 108.042 81.5307 106.718 80.0747 105.601C79.9722 105.522 79.8682 105.444 79.7655 105.367C77.2933 103.487 75.3752 102.241 74.9477 101.968C74.8961 101.934 74.867 101.916 74.8604 101.911L74.9615 101.749L74.9617 101.746L75.0643 101.583C75.0709 101.587 75.169 101.647 75.3462 101.763C76.0117 102.194 77.8003 103.38 80.0254 105.066C80.1254 105.142 80.2294 105.22 80.3319 105.3C81.5145 106.205 82.8078 107.242 84.1139 108.377C84.4424 108.661 84.7628 108.945 85.075 109.229C85.1731 109.315 85.2698 109.402 85.3637 109.49C86.6867 110.696 87.8712 111.876 88.9171 113.03Z" fill="white"/>
<path d="M81.6023 102.463C81.5577 102.571 81.5098 102.679 81.4602 102.785C81.0829 103.605 80.6003 104.372 80.0247 105.066C79.9405 105.166 79.8546 105.267 79.7654 105.367C79.5242 105.634 79.2676 105.892 78.9955 106.142C77.8825 107.154 76.5635 107.91 75.13 108.358C75.0837 108.373 75.0392 108.388 74.9929 108.402C75.0011 108.533 75.0095 108.662 75.0177 108.796C75.064 108.783 75.1086 108.77 75.1548 108.755C76.6758 108.294 78.0757 107.5 79.2533 106.429C79.5412 106.167 79.8153 105.891 80.0743 105.601C80.1634 105.503 80.2494 105.402 80.332 105.3C80.9475 104.557 81.4599 103.734 81.855 102.853C81.9013 102.747 81.9476 102.64 81.9922 102.533C81.8601 102.509 81.7295 102.486 81.6023 102.463Z" fill="white"/>
<path d="M58.3556 33.4743H29.317C29.0753 33.474 28.8437 33.3775 28.6728 33.2058C28.5019 33.0342 28.4058 32.8015 28.4055 32.5587V10.4113C28.4058 10.1686 28.5019 9.93588 28.6728 9.76423C28.8436 9.59258 29.0753 9.49602 29.317 9.49573H64.9604C65.202 9.49602 65.4337 9.59258 65.6046 9.76423C65.7755 9.93588 65.8716 10.1686 65.8718 10.4113V25.9245C65.8696 27.9261 65.077 29.8451 63.6679 31.2605C62.2588 32.6759 60.3483 33.472 58.3556 33.4743Z" fill="white"/>
<path d="M58.3554 33.5572H29.3168C29.0533 33.5569 28.8006 33.4516 28.6143 33.2644C28.4279 33.0772 28.3231 32.8234 28.3228 32.5587V10.4113C28.323 10.1466 28.4279 9.89275 28.6142 9.70555C28.8006 9.51835 29.0533 9.41304 29.3168 9.41272H64.9602C65.2238 9.41302 65.4764 9.51833 65.6628 9.70554C65.8492 9.89274 65.954 10.1466 65.9543 10.4113V25.9245C65.952 27.9481 65.1506 29.8882 63.7261 31.3191C62.3015 32.75 60.37 33.5549 58.3554 33.5572ZM29.3168 9.74458C29.1409 9.74479 28.9722 9.81511 28.8477 9.9401C28.7233 10.0651 28.6533 10.2345 28.6531 10.4113V32.5587C28.6533 32.7354 28.7233 32.9049 28.8477 33.0299C28.9722 33.1548 29.1409 33.2251 29.3168 33.2253H58.3554C60.2824 33.2231 62.1299 32.4532 63.4926 31.0845C64.8552 29.7158 65.6217 27.8601 65.6239 25.9245V10.4113C65.6237 10.2345 65.5537 10.0651 65.4293 9.9401C65.3049 9.81511 65.1362 9.74479 64.9602 9.74458H29.3168Z" fill="#CCCCCC"/>
<path d="M57.9145 16.9753H36.3627C36.1649 16.9753 35.9751 16.8963 35.8352 16.7558C35.6953 16.6153 35.6167 16.4247 35.6167 16.2259C35.6167 16.0272 35.6953 15.8366 35.8352 15.696C35.9751 15.5555 36.1649 15.4766 36.3627 15.4766H57.9145C58.1122 15.4769 58.3017 15.5559 58.4413 15.6964C58.581 15.8369 58.6594 16.0274 58.6594 16.2259C58.6594 16.4245 58.581 16.6149 58.4413 16.7554C58.3017 16.8959 58.1122 16.975 57.9145 16.9753Z" fill="#CCCCCC"/>
<path d="M57.9145 22.1375H36.3627C36.1649 22.1375 35.9751 22.0585 35.8352 21.918C35.6953 21.7775 35.6167 21.5869 35.6167 21.3881C35.6167 21.1894 35.6953 20.9988 35.8352 20.8583C35.9751 20.7177 36.1649 20.6388 36.3627 20.6388H57.9145C58.1124 20.6388 58.3021 20.7177 58.4421 20.8583C58.582 20.9988 58.6606 21.1894 58.6606 21.3881C58.6606 21.5869 58.582 21.7775 58.4421 21.918C58.3021 22.0585 58.1124 22.1375 57.9145 22.1375Z" fill="#CCCCCC"/>
<path d="M57.9145 27.4472H36.3627C36.1649 27.4472 35.9751 27.3682 35.8352 27.2277C35.6953 27.0872 35.6167 26.8966 35.6167 26.6978C35.6167 26.4991 35.6953 26.3085 35.8352 26.168C35.9751 26.0274 36.1649 25.9485 36.3627 25.9485H57.9145C58.1124 25.9485 58.3021 26.0274 58.4421 26.168C58.582 26.3085 58.6606 26.4991 58.6606 26.6978C58.6606 26.8966 58.582 27.0872 58.4421 27.2277C58.3021 27.3682 58.1124 27.4472 57.9145 27.4472Z" fill="#CCCCCC"/>
<path d="M64.6928 14.9497C67.1532 14.9497 69.1478 12.9463 69.1478 10.4749C69.1478 8.00346 67.1532 6 64.6928 6C62.2324 6 60.2378 8.00346 60.2378 10.4749C60.2378 12.9463 62.2324 14.9497 64.6928 14.9497Z" fill="#6C63FF"/>
<path d="M64.0849 12.8039C64.008 12.8039 63.9321 12.7859 63.8633 12.7513C63.7945 12.7167 63.7347 12.6666 63.6885 12.6047L62.4731 10.977C62.4341 10.9247 62.4057 10.8651 62.3895 10.8018C62.3734 10.7385 62.3698 10.6726 62.379 10.6079C62.3882 10.5432 62.41 10.4809 62.4432 10.4247C62.4763 10.3684 62.5202 10.3193 62.5723 10.2801C62.6243 10.2409 62.6836 10.2123 62.7466 10.1961C62.8096 10.1799 62.8752 10.1763 62.9397 10.1856C63.0041 10.1948 63.0661 10.2167 63.1221 10.25C63.1781 10.2833 63.227 10.3274 63.266 10.3797L64.0612 11.4445L66.1034 8.36754C66.1763 8.25769 66.2897 8.18143 66.4186 8.15554C66.5475 8.12965 66.6813 8.15625 66.7907 8.22948C66.9 8.30271 66.9759 8.41658 67.0017 8.54603C67.0275 8.67549 67.001 8.80992 66.9281 8.91977L64.4973 12.5822C64.4533 12.6484 64.3942 12.7031 64.3248 12.7417C64.2555 12.7802 64.178 12.8015 64.0987 12.8037C64.0941 12.8038 64.0895 12.8039 64.0849 12.8039Z" fill="white"/>
<path d="M47.6374 52.7103H18.5988C16.6061 52.7081 14.6956 51.9119 13.2865 50.4965C11.8774 49.0812 11.0848 47.1622 11.0825 45.1605V29.6473C11.0828 29.4046 11.1789 29.1718 11.3498 29.0002C11.5207 28.8285 11.7524 28.732 11.9941 28.7317H47.6374C47.879 28.732 48.1107 28.8285 48.2816 29.0002C48.4525 29.1718 48.5486 29.4046 48.5489 29.6473V51.7947C48.5486 52.0374 48.4525 52.2702 48.2816 52.4418C48.1107 52.6135 47.879 52.71 47.6374 52.7103Z" fill="white"/>
<path d="M47.6375 52.7932H18.5989C16.5842 52.7909 14.6528 51.986 13.2282 50.5551C11.8036 49.1242 11.0023 47.1841 11 45.1605V29.6473C11.0003 29.3825 11.1051 29.1287 11.2915 28.9415C11.4779 28.7543 11.7306 28.649 11.9941 28.6487H47.6375C47.901 28.649 48.1537 28.7543 48.3401 28.9415C48.5265 29.1287 48.6313 29.3825 48.6316 29.6473V51.7947C48.6313 52.0594 48.5265 52.3132 48.3401 52.5004C48.1537 52.6876 47.901 52.7929 47.6375 52.7932ZM11.9941 28.9805C11.8182 28.9808 11.6495 29.0511 11.525 29.1761C11.4006 29.301 11.3306 29.4705 11.3304 29.6473V45.1605C11.3326 47.0961 12.099 48.9519 13.4617 50.3206C14.8243 51.6893 16.6718 52.4592 18.5989 52.4614H47.6375C47.8134 52.4612 47.9822 52.3909 48.1066 52.2659C48.231 52.1409 48.301 51.9714 48.3012 51.7947V29.6473C48.301 29.4705 48.231 29.301 48.1066 29.1761C47.9821 29.0511 47.8134 28.9808 47.6375 28.9805H11.9941Z" fill="#CCCCCC"/>
<path d="M40.5918 36.2113H19.04C18.8421 36.2113 18.6524 36.1324 18.5125 35.9919C18.3725 35.8513 18.2939 35.6607 18.2939 35.462C18.2939 35.2633 18.3725 35.0727 18.5125 34.9321C18.6524 34.7916 18.8421 34.7126 19.04 34.7126H40.5918C40.7896 34.7126 40.9794 34.7916 41.1193 34.9321C41.2592 35.0727 41.3378 35.2633 41.3378 35.462C41.3378 35.6607 41.2592 35.8513 41.1193 35.9919C40.9794 36.1324 40.7896 36.2113 40.5918 36.2113Z" fill="#CCCCCC"/>
<path d="M40.5918 41.3735H19.04C18.8421 41.3735 18.6524 41.2945 18.5125 41.154C18.3725 41.0134 18.2939 40.8228 18.2939 40.6241C18.2939 40.4254 18.3725 40.2348 18.5125 40.0942C18.6524 39.9537 18.8421 39.8748 19.04 39.8748H40.5918C40.7896 39.8748 40.9794 39.9537 41.1193 40.0942C41.2592 40.2348 41.3378 40.4254 41.3378 40.6241C41.3378 40.8228 41.2592 41.0134 41.1193 41.154C40.9794 41.2945 40.7896 41.3735 40.5918 41.3735Z" fill="#CCCCCC"/>
<path d="M40.5918 46.6832H19.04C18.8421 46.6832 18.6524 46.6042 18.5125 46.4637C18.3725 46.3231 18.2939 46.1325 18.2939 45.9338C18.2939 45.7351 18.3725 45.5445 18.5125 45.4039C18.6524 45.2634 18.8421 45.1844 19.04 45.1844H40.5918C40.7896 45.1844 40.9794 45.2634 41.1193 45.4039C41.2592 45.5445 41.3378 45.7351 41.3378 45.9338C41.3378 46.1325 41.2592 46.3231 41.1193 46.4637C40.9794 46.6042 40.7896 46.6832 40.5918 46.6832Z" fill="#CCCCCC"/>
<path d="M47.6779 34.3634C50.1384 34.3634 52.1329 32.36 52.1329 29.8886C52.1329 27.4172 50.1384 25.4137 47.6779 25.4137C45.2175 25.4137 43.2229 27.4172 43.2229 29.8886C43.2229 32.36 45.2175 34.3634 47.6779 34.3634Z" fill="#6C63FF"/>
<path d="M47.07 32.2176C46.9931 32.2176 46.9172 32.1996 46.8484 32.165C46.7796 32.1304 46.7198 32.0802 46.6736 32.0184L45.4582 30.3906C45.4192 30.3383 45.3908 30.2788 45.3746 30.2155C45.3585 30.1522 45.3549 30.0863 45.3641 30.0216C45.3733 29.9569 45.3951 29.8946 45.4283 29.8384C45.4614 29.7821 45.5053 29.733 45.5574 29.6938C45.6094 29.6546 45.6687 29.626 45.7317 29.6098C45.7948 29.5936 45.8604 29.59 45.9248 29.5993C45.9892 29.6085 46.0512 29.6304 46.1072 29.6637C46.1632 29.697 46.2121 29.7411 46.2511 29.7934L47.0463 30.8582L49.0885 27.7812C49.1614 27.6714 49.2748 27.5951 49.4037 27.5692C49.5326 27.5433 49.6664 27.5699 49.7758 27.6432C49.8851 27.7164 49.961 27.8303 49.9868 27.9597C50.0126 28.0892 49.9861 28.2236 49.9132 28.3335L47.4824 31.9959C47.4384 32.0621 47.3793 32.1168 47.31 32.1554C47.2406 32.1939 47.1631 32.2152 47.0838 32.2174C47.0792 32.2175 47.0746 32.2176 47.07 32.2176Z" fill="white"/>
<path d="M83.8187 73.354H43.1872C41.1944 73.3518 39.2839 72.5556 37.8749 71.1403C36.4658 69.7249 35.6731 67.8059 35.6709 65.8043V42.9867C35.6713 42.6738 35.7952 42.3739 36.0154 42.1526C36.2357 41.9313 36.5344 41.8069 36.8459 41.8065H83.8187C84.1302 41.8069 84.4289 41.9313 84.6491 42.1526C84.8694 42.3739 84.9933 42.6738 84.9936 42.9867V72.1737C84.9933 72.4866 84.8694 72.7866 84.6491 73.0079C84.4289 73.2292 84.1302 73.3536 83.8187 73.354Z" fill="white"/>
<path d="M83.8188 73.437H43.1873C41.1726 73.4347 39.2411 72.6298 37.8166 71.1988C36.392 69.7679 35.5907 67.8278 35.5884 65.8042V42.9867C35.5888 42.6518 35.7214 42.3307 35.9571 42.0939C36.1929 41.8571 36.5125 41.7239 36.846 41.7235H83.8188C84.1522 41.7239 84.4718 41.8571 84.7076 42.0939C84.9433 42.3307 85.0759 42.6518 85.0763 42.9867V72.1737C85.0759 72.5086 84.9434 72.8297 84.7076 73.0665C84.4719 73.3033 84.1522 73.4366 83.8188 73.437ZM36.846 42.0554C36.6001 42.0557 36.3645 42.1539 36.1907 42.3285C36.0168 42.5031 35.9191 42.7398 35.9188 42.9867V65.8042C35.9209 67.7399 36.6874 69.5956 38.0501 70.9643C39.4127 72.333 41.2602 73.1029 43.1873 73.1051H83.8188C84.0646 73.1048 84.3003 73.0066 84.4741 72.832C84.6479 72.6573 84.7456 72.4206 84.7459 72.1737V42.9867C84.7456 42.7398 84.6479 42.5031 84.4741 42.3285C84.3003 42.1539 84.0646 42.0557 83.8188 42.0554H36.846Z" fill="#CCCCCC"/>
<path d="M74.5333 51.6372H46.1312C46.0019 51.6374 45.874 51.6119 45.7545 51.5624C45.6351 51.5128 45.5266 51.4401 45.4351 51.3484C45.3437 51.2567 45.2712 51.1478 45.2217 51.0279C45.1722 50.908 45.1467 50.7794 45.1467 50.6496C45.1467 50.5199 45.1722 50.3913 45.2217 50.2714C45.2712 50.1515 45.3437 50.0426 45.4351 49.9509C45.5266 49.8592 45.6351 49.7865 45.7545 49.7369C45.874 49.6874 46.0019 49.6619 46.1312 49.6621H74.5333C74.6626 49.6619 74.7905 49.6874 74.91 49.7369C75.0294 49.7865 75.1379 49.8592 75.2294 49.9509C75.3208 50.0426 75.3933 50.1515 75.4428 50.2714C75.4923 50.3913 75.5178 50.5199 75.5178 50.6496C75.5178 50.7794 75.4923 50.908 75.4428 51.0279C75.3933 51.1478 75.3208 51.2567 75.2294 51.3484C75.1379 51.4401 75.0294 51.5128 74.91 51.5624C74.7905 51.6119 74.6626 51.6374 74.5333 51.6372Z" fill="#CCCCCC"/>
<path d="M74.5333 58.4402H46.1312C46.0019 58.4403 45.874 58.4149 45.7545 58.3654C45.6351 58.3158 45.5266 58.2431 45.4351 58.1514C45.3437 58.0596 45.2712 57.9507 45.2217 57.8308C45.1722 57.7109 45.1467 57.5824 45.1467 57.4526C45.1467 57.3228 45.1722 57.1943 45.2217 57.0744C45.2712 56.9545 45.3437 56.8456 45.4351 56.7539C45.5266 56.6622 45.6351 56.5894 45.7545 56.5399C45.874 56.4903 46.0019 56.4649 46.1312 56.4651H74.5333C74.7941 56.4651 75.0442 56.5691 75.2285 56.7543C75.4129 56.9395 75.5165 57.1907 75.5165 57.4526C75.5165 57.7145 75.4129 57.9657 75.2285 58.1509C75.0442 58.3361 74.7941 58.4402 74.5333 58.4402Z" fill="#CCCCCC"/>
<path d="M74.5333 65.4376H46.1311C45.8704 65.4376 45.6203 65.3335 45.4359 65.1483C45.2515 64.9631 45.1479 64.712 45.1479 64.4501C45.1479 64.1881 45.2515 63.937 45.4359 63.7518C45.6203 63.5666 45.8704 63.4625 46.1311 63.4625H74.5333C74.6625 63.4624 74.7905 63.4878 74.9099 63.5373C75.0293 63.5869 75.1379 63.6596 75.2293 63.7513C75.3207 63.843 75.3933 63.952 75.4427 64.0718C75.4922 64.1917 75.5177 64.3203 75.5177 64.4501C75.5177 64.5798 75.4922 64.7084 75.4427 64.8283C75.3933 64.9482 75.3207 65.0571 75.2293 65.1488C75.1379 65.2405 75.0293 65.3132 74.9099 65.3628C74.7905 65.4123 74.6625 65.4378 74.5333 65.4376Z" fill="#CCCCCC"/>
<path d="M83.9664 49.2574C87.081 49.2574 89.6059 46.7212 89.6059 43.5927C89.6059 40.4642 87.081 37.9281 83.9664 37.9281C80.8518 37.9281 78.3269 40.4642 78.3269 43.5927C78.3269 46.7212 80.8518 49.2574 83.9664 49.2574Z" fill="#6C63FF"/>
<path d="M83.1971 46.5409C83.0997 46.5409 83.0036 46.5182 82.9165 46.4744C82.8294 46.4306 82.7537 46.3671 82.6953 46.2888L81.1567 44.2283C81.1073 44.1621 81.0713 44.0867 81.0509 44.0066C81.0304 43.9264 81.0259 43.843 81.0376 43.7611C81.0492 43.6792 81.0768 43.6004 81.1188 43.5292C81.1608 43.458 81.2163 43.3958 81.2822 43.3461C81.3481 43.2965 81.4231 43.2604 81.5029 43.2398C81.5827 43.2193 81.6657 43.2148 81.7473 43.2265C81.8288 43.2382 81.9073 43.2659 81.9782 43.3081C82.0491 43.3502 82.111 43.406 82.1604 43.4722L83.167 44.8202L85.7522 40.9251C85.8446 40.7863 85.9881 40.6899 86.1511 40.6573C86.3142 40.6247 86.4834 40.6584 86.6217 40.751C86.7601 40.8436 86.8561 40.9876 86.8888 41.1513C86.9215 41.315 86.8882 41.4851 86.7962 41.6241L83.7191 46.2603C83.6634 46.3442 83.5885 46.4134 83.5008 46.4622C83.413 46.511 83.3148 46.5379 83.2145 46.5407C83.2087 46.5408 83.2029 46.5409 83.1971 46.5409Z" fill="white"/>
<path d="M85.8322 45.5435C85.8821 45.7981 85.9868 46.0386 86.1392 46.2481C86.2916 46.4577 86.4879 46.6311 86.7142 46.7562C86.9405 46.8812 87.1914 46.955 87.4491 46.9721C87.7069 46.9893 87.9652 46.9495 88.206 46.8555L90.999 49.7845L93.185 48.5137L89.1829 44.4331C88.9989 44.0373 88.6768 43.723 88.2775 43.5498C87.8782 43.3766 87.4296 43.3565 87.0166 43.4934C86.6036 43.6303 86.2549 43.9146 86.0366 44.2924C85.8183 44.6703 85.7456 45.1154 85.8322 45.5435Z" fill="#FFB6B6"/>
<path d="M103.908 60.2707L105.167 58.9622L97.8858 52.1885L90.5573 45.6157L88.5276 48.4966L96.2073 55.6969L103.908 60.2707Z" fill="#E4E4E4"/>
<path d="M99.434 104.723C99.434 103.079 99.4664 101.906 99.4924 100.964C99.5686 98.2052 99.5891 97.4638 98.5382 92.7137L98.2683 91.4939L96.6767 96.2898C96.1684 97.8197 95.9086 99.4219 95.9074 101.035L98.3614 115.824H93.3457L89.6723 99.8353L89.6706 94.9445C89.3469 94.6081 89.166 94.1586 89.166 93.6907C89.166 93.2229 89.3469 92.7733 89.6706 92.4369L90.891 85.1097L92.1263 75.2347H105.657C105.657 75.2347 108.045 80.2063 105.672 85.1378L105.671 104.73L104.445 118.276H100.66L99.434 104.723Z" fill="#2F2E41"/>
<path d="M104.83 76.43L92.1739 75.3707L92.1082 75.3652L93.1182 57.1041C93.1775 55.9559 93.5786 54.8521 94.2695 53.9355C94.9604 53.0188 95.9093 52.3316 96.9934 51.9626V50.6847C96.9937 50.3684 97.119 50.0652 97.3417 49.8415C97.5643 49.6179 97.8662 49.4921 98.1811 49.4917H100.03C100.251 49.491 100.468 49.5524 100.655 49.6689C100.843 49.7855 100.995 49.9526 101.093 50.1512L101.997 51.9677L105.416 54.7153C107.105 56.0724 105.746 69.6782 105.673 70.3961L106.5 74.5495C106.545 74.7779 106.54 75.0137 106.483 75.2398C106.427 75.4658 106.322 75.6766 106.175 75.857C106.028 76.0374 105.844 76.1828 105.634 76.2829C105.425 76.3829 105.196 76.4352 104.964 76.4357C104.919 76.4356 104.875 76.4337 104.83 76.43Z" fill="#E4E4E4"/>
<path d="M91.4272 81.2517C91.6272 81.0876 91.7891 80.8814 91.9012 80.6476C92.0134 80.4139 92.0732 80.1583 92.0764 79.8989C92.0796 79.6394 92.0261 79.3824 91.9197 79.146C91.8133 78.9095 91.6566 78.6994 91.4606 78.5304L92.7163 74.6757L90.5703 73.3379L88.8731 78.8065C88.6123 79.156 88.4881 79.5895 88.5242 80.0249C88.5603 80.4602 88.7541 80.8671 89.0689 81.1685C89.3837 81.4699 89.7977 81.6449 90.2323 81.6602C90.6669 81.6755 91.0921 81.5302 91.4272 81.2517Z" fill="#FFB6B6"/>
<path d="M95.8408 55.0467L94.0985 54.4633L91.582 65.7411L89.2642 76.9569L92.7502 77.4722L95.4536 65.5467L95.8408 55.0467Z" fill="#E4E4E4"/>
<path d="M97.7433 48.3245C100.039 48.3245 101.9 46.4552 101.9 44.1494C101.9 41.8435 100.039 39.9742 97.7433 39.9742C95.4476 39.9742 93.5867 41.8435 93.5867 44.1494C93.5867 46.4552 95.4476 48.3245 97.7433 48.3245Z" fill="#FFB6B6"/>
<path d="M92.1506 42.1047C92.1889 41.709 92.3018 41.3243 92.4833 40.971C92.6776 41.3954 93.2837 41.469 93.6985 41.2578C94.1134 41.0466 94.3914 40.6454 94.6878 40.2854C95.4701 39.3356 96.5459 38.5651 97.7651 38.4248C98.9844 38.2845 100.328 38.9027 100.789 40.0452C100.996 39.7569 101.437 39.7249 101.749 39.8924C102.05 40.0833 102.285 40.3632 102.422 40.6936C102.729 41.326 102.902 42.0153 102.932 42.7182C102.961 43.4211 102.845 44.1225 102.591 44.7782C102.078 46.0832 100.81 47.8415 99.5019 48.334C98.7077 48.633 97.9056 48.2503 97.061 48.334C97.1053 47.4081 97.284 46.2658 97.3282 45.3399C97.3524 44.8329 97.356 44.2656 97.0112 43.8944C96.9054 43.7936 96.7789 43.7173 96.6405 43.671C96.5022 43.6247 96.3554 43.6095 96.2105 43.6265C96.0657 43.6435 95.9263 43.6922 95.8023 43.7693C95.6783 43.8463 95.5726 43.9499 95.4928 44.0725C95.4501 43.7846 95.3533 43.5075 95.2076 43.2559C95.1329 43.1312 95.0249 43.0299 94.8959 42.9635C94.7669 42.8971 94.622 42.8683 94.4775 42.8802C94.1249 42.9383 93.907 43.3019 93.5834 43.4542C93.3996 43.5282 93.1977 43.544 93.0047 43.4995C92.8117 43.4551 92.6368 43.3525 92.5035 43.2054C92.3739 43.0552 92.2759 42.8804 92.2152 42.6912C92.1546 42.5021 92.1326 42.3026 92.1506 42.1047Z" fill="#2F2E41"/>
<path opacity="0.1" d="M98.2815 65.4961L93.3999 75.3028H97.0612L98.2815 65.4961Z" fill="black"/>
</svg>
