<svg width="201" height="200" viewBox="0 0 201 200" fill="none" xmlns="http://www.w3.org/2000/svg">
<path d="M23.1519 51.388L89.804 51.388V48.464L23.1519 48.464V51.388Z" fill="#EBEBEB"/>
<path d="M86.064 51.392H83.14V61.06H86.064V51.392Z" fill="#EBEBEB"/>
<path d="M86.064 51.392H83.14V54.38H86.064V51.392Z" fill="#DBDBDB"/>
<path d="M29.808 51.392H26.884V61.06H29.808V51.392Z" fill="#EBEBEB"/>
<path d="M29.808 51.392H26.884V54.38H29.808V51.392Z" fill="#DBDBDB"/>
<path d="M77.36 48.468V29.84H72.668V48.468H77.36Z" fill="#C7C7C7"/>
<path d="M77.36 30.892V28.844H72.668V30.892H77.36Z" fill="#DBDBDB"/>
<path d="M77.36 34.272V33.512H72.668V34.272H77.36Z" fill="#DBDBDB"/>
<path d="M77.36 46.0239V43.976H72.084V46.0239H77.36Z" fill="#DBDBDB"/>
<path d="M72.668 48.468V26.736H69.388V48.468H72.668Z" fill="#DBDBDB"/>
<path d="M72.028 37.136V28.78H70.06V37.136H72.028Z" fill="#EBEBEB"/>
<path d="M48.3736 48.4755L63.8287 33.1974L61.5228 30.8648L46.0677 46.1429L48.3736 48.4755Z" fill="#C7C7C7"/>
<path d="M51.5297 44.4166L57.4722 38.5421L56.0886 37.1425L50.1461 43.017L51.5297 44.4166Z" fill="#DBDBDB"/>
<path d="M69.392 48.468V31.964H63.824V48.468H69.392Z" fill="#A6A6A6"/>
<path d="M69.392 46.724V45.184H63.824V46.724H69.392Z" fill="#C7C7C7"/>
<path d="M69.392 44.172V43.576H63.824V44.172H69.392Z" fill="#C7C7C7"/>
<path d="M81.208 48.472V32.96H77.364V48.472H81.208Z" fill="#A6A6A6"/>
<path d="M81.208 46.824V45.38H77.364V46.824H81.208Z" fill="#C7C7C7"/>
<path d="M81.208 37.6V36.156H77.364V37.6H81.208Z" fill="#C7C7C7"/>
<path d="M81.204 39.152V38.5919H77.36V39.152H81.204Z" fill="#C7C7C7"/>
<path d="M36.6279 28.596C39.9079 31.796 40.4599 36.78 39.7679 41.132C39.7679 41.228 39.5959 41.204 39.5959 41.108C39.5959 40.12 39.6279 39.136 39.6239 38.16C39.6239 38.112 39.5919 38.072 39.5719 38.028C38.6881 37.4456 37.9569 36.6596 37.4399 35.736C36.8919 34.66 36.6759 33.444 36.2599 32.316C36.2199 32.208 36.3359 32.24 36.4079 32.296C38.4079 33.768 39.0399 35.352 39.6079 37.468C39.5948 36.3609 39.4783 35.2574 39.2599 34.172C38.879 32.126 37.9373 30.2261 36.5399 28.684C36.5324 28.6717 36.5293 28.6573 36.531 28.643C36.5327 28.6287 36.5391 28.6155 36.5493 28.6053C36.5594 28.5951 36.5727 28.5887 36.587 28.587C36.6013 28.5853 36.6157 28.5885 36.6279 28.596V28.596Z" fill="#A6A6A6"/>
<path d="M36.012 28.972C35.444 28.972 35.092 29.892 34.652 30.172C34.6057 30.2096 34.5519 30.237 34.4943 30.2524C34.4367 30.2678 34.3765 30.2709 34.3176 30.2615C34.2587 30.2521 34.2025 30.2303 34.1526 30.1976C34.1026 30.165 34.0602 30.1222 34.028 30.072C33.592 29.464 34.192 28.716 34.752 28.296C34.3811 28.5039 33.9896 28.6728 33.584 28.8C33.5285 28.8195 33.4695 28.8265 33.4111 28.8206C33.3526 28.8147 33.2962 28.796 33.2458 28.7659C33.1954 28.7357 33.1523 28.6948 33.1195 28.6461C33.0866 28.5974 33.065 28.542 33.056 28.484C32.864 27.656 33.904 27.284 34.62 27.284C34.272 27.044 33.28 26.392 33.82 26.084C34.36 25.776 35.52 26.696 35.896 27.004C36.456 27.456 37.12 28.136 37.148 28.844C37.168 29.652 36.444 29.144 36.012 28.972Z" fill="#DBDBDB"/>
<path d="M36.1719 29.112C35.4519 28.78 34.0639 29.256 33.9479 28.98C33.7079 28.424 34.8159 28.044 35.4159 27.968C34.8639 27.82 33.8159 27.568 33.8399 27.052C33.8799 26.404 35.4599 26.96 36.2599 27.572C37.2639 28.344 37.2599 29.092 37.0919 29.24C36.8639 29.444 36.2919 29.164 36.1719 29.112Z" fill="#EBEBEB"/>
<path d="M44.1 28.28C40.7 31.364 39.96 36.308 40.5 40.68C40.5 40.78 40.668 40.76 40.672 40.68C40.708 39.692 40.716 38.708 40.756 37.732L40.812 37.6C41.7174 37.0546 42.4777 36.2984 43.028 35.396C43.62 34.34 43.88 33.132 44.34 32.024C44.384 31.916 44.268 31.944 44.192 31.996C42.14 33.392 41.444 34.952 40.792 37.044C40.8465 35.9383 41.0045 34.8401 41.264 33.764C41.7245 31.7318 42.741 29.8677 44.2 28.38C44.2132 28.3667 44.2207 28.3487 44.2207 28.33C44.2207 28.3112 44.2132 28.2932 44.2 28.28C44.1867 28.2667 44.1687 28.2592 44.15 28.2592C44.1312 28.2592 44.1132 28.2667 44.1 28.28V28.28Z" fill="#A6A6A6"/>
<path d="M44.7 28.676C45.264 28.716 45.584 29.632 46.012 29.912C46.0568 29.9514 46.1095 29.9809 46.1665 29.9986C46.2236 30.0163 46.2837 30.0217 46.343 30.0146C46.4023 30.0074 46.4594 29.9878 46.5106 29.957C46.5617 29.9262 46.6058 29.885 46.64 29.836C47.1 29.244 46.528 28.472 45.984 28.032C46.3458 28.2652 46.7304 28.4608 47.132 28.616C47.1866 28.6376 47.2454 28.6469 47.3041 28.6433C47.3628 28.6396 47.4199 28.6231 47.4715 28.5948C47.5231 28.5666 47.5678 28.5273 47.6024 28.4798C47.6371 28.4322 47.6608 28.3777 47.672 28.32C47.892 27.496 46.872 27.088 46.156 27.044C46.508 26.816 47.524 26.2 47.012 25.844C46.5 25.488 45.3 26.4 44.9 26.7C44.324 27.132 43.636 27.784 43.584 28.488C43.52 29.312 44.26 28.832 44.7 28.676Z" fill="#DBDBDB"/>
<path d="M44.532 28.8C45.268 28.5 46.632 29.024 46.76 28.756C47.02 28.212 45.928 27.788 45.336 27.692C45.892 27.564 46.936 27.364 46.936 26.832C46.936 26.184 45.336 26.68 44.5 27.264C43.468 27.996 43.444 28.74 43.604 28.896C43.828 29.116 44.412 28.86 44.532 28.8Z" fill="#EBEBEB"/>
<path d="M40.62 36.428C40.3923 38.0778 40.0393 39.7078 39.564 41.304C39.5576 41.3353 39.5391 41.3627 39.5125 41.3804C39.4858 41.398 39.4533 41.4043 39.422 41.398C39.3907 41.3916 39.3632 41.3731 39.3456 41.3464C39.328 41.3198 39.3216 41.2873 39.328 41.256C39.552 39.752 39.96 38.276 40.18 36.776C40.4257 35.2544 40.5142 33.7116 40.444 32.172C40.3 29.64 39.612 26.944 37.96 24.972C37.924 24.924 38 24.856 38.036 24.9C41.348 28.76 40.836 33.492 40.836 33.916C41.304 32.316 41.788 30.488 43.56 28.86C43.636 28.788 43.696 28.824 43.684 28.944C43.368 31.904 42.544 33.452 40.824 35.036C40.756 35.496 40.696 35.964 40.62 36.428Z" fill="#A6A6A6"/>
<path d="M37.928 25.408C37.332 25.144 36.512 25.9 35.928 25.952C35.8624 25.9677 35.7943 25.9697 35.7279 25.9577C35.6615 25.9458 35.5983 25.9202 35.5423 25.8826C35.4863 25.845 35.4387 25.7962 35.4025 25.7393C35.3663 25.6824 35.3423 25.6186 35.332 25.552C35.184 24.704 36.184 24.224 36.976 24.072C36.476 24.04 35.984 24.176 35.492 24.044C35.4242 24.0361 35.359 24.0136 35.3007 23.9781C35.2425 23.9426 35.1926 23.8948 35.1546 23.8382C35.1166 23.7815 35.0913 23.7173 35.0805 23.6499C35.0697 23.5826 35.0736 23.5137 35.092 23.448C35.312 22.492 36.576 22.648 37.328 22.972C37.088 22.572 36.388 21.372 37.096 21.304C37.804 21.236 38.552 22.792 38.788 23.304C39.14 24.056 39.492 25.092 39.16 25.84C38.788 26.696 38.292 25.804 37.928 25.408Z" fill="#DBDBDB"/>
<path d="M38.028 25.632C37.444 24.932 35.768 24.724 35.784 24.38C35.816 23.684 37.156 23.844 37.816 24.068C37.32 23.636 36.344 22.868 36.644 22.324C37.012 21.672 38.368 23.044 38.892 24.084C39.548 25.392 39.164 26.16 38.916 26.232C38.576 26.328 38.124 25.752 38.028 25.632Z" fill="#EBEBEB"/>
<path d="M42.8 37.316L44.26 48.468H35.376C35.56 47.48 37.212 37.304 37.212 37.304L42.8 37.316Z" fill="#DBDBDB"/>
<path d="M148.744 40.172C148.986 39.146 149.426 38.1772 150.04 37.32C150.624 36.52 151.565 35.9386 152.864 35.576C153.264 35.456 153.732 35.328 154.296 35.176C154.876 35.035 155.444 34.8449 155.992 34.608C156.55 34.3699 157.065 34.0415 157.516 33.636C157.973 33.2232 158.293 32.6801 158.432 32.08C158.551 31.6484 158.566 31.1946 158.476 30.756C158.392 30.3619 158.229 29.989 157.996 29.66C157.755 29.3281 157.451 29.0479 157.1 28.836C156.741 28.6138 156.35 28.4491 155.94 28.348C155.47 28.2271 154.98 28.204 154.5 28.28C154.064 28.3448 153.639 28.4686 153.236 28.648C152.843 28.8239 152.473 29.0455 152.132 29.308C151.818 29.5466 151.517 29.8031 151.232 30.076L148.792 27.276C149.246 26.6623 149.801 26.1295 150.432 25.7C151.047 25.2824 151.721 24.9601 152.432 24.744C153.157 24.5273 153.908 24.4129 154.664 24.404C155.445 24.3928 156.224 24.4856 156.98 24.68C157.842 24.8975 158.668 25.2384 159.432 25.692C160.196 26.1424 160.862 26.7407 161.392 27.452C161.938 28.1948 162.315 29.0481 162.496 29.952C162.699 31.0148 162.653 32.1103 162.36 33.152C162.208 33.8037 161.96 34.4292 161.624 35.008C161.326 35.5064 160.95 35.9546 160.512 36.336C160.078 36.7087 159.598 37.0246 159.084 37.276C158.526 37.5447 157.95 37.7733 157.36 37.96C156.836 38.12 156.32 38.264 155.804 38.4C155.306 38.5285 154.822 38.7025 154.356 38.92C153.911 39.122 153.504 39.4009 153.156 39.744C152.798 40.1212 152.549 40.5884 152.436 41.096L148.744 40.172ZM146.82 48.104L148 43.416L151.772 44.364L150.592 49.052L146.82 48.104Z" fill="#EBEBEB"/>
<path d="M29.732 127.112C29.9037 127.87 29.9254 128.654 29.796 129.42C29.605 130.235 29.1493 130.964 28.5 131.492C28.276 131.696 28 131.936 27.672 132.208C27.3324 132.488 27.0179 132.797 26.732 133.132C26.4372 133.469 26.2007 133.853 26.032 134.268C25.8627 134.69 25.8264 135.153 25.928 135.596C25.9903 135.922 26.1272 136.228 26.328 136.492C26.5116 136.726 26.7401 136.92 27 137.064C27.2672 137.204 27.5595 137.29 27.86 137.316C28.1699 137.348 28.483 137.332 28.788 137.268C29.1354 137.201 29.4659 137.065 29.76 136.868C30.029 136.685 30.2713 136.466 30.48 136.216C30.6832 135.97 30.8577 135.702 31 135.416C31.1329 135.157 31.2491 134.89 31.348 134.616L33.868 135.672C33.7629 136.226 33.5655 136.759 33.284 137.248C33.0104 137.726 32.665 138.159 32.26 138.532C31.8505 138.912 31.3884 139.231 30.888 139.48C30.3737 139.738 29.8277 139.928 29.264 140.044C28.6227 140.179 27.9652 140.221 27.312 140.168C26.6602 140.116 26.0252 139.935 25.444 139.636C24.841 139.318 24.3142 138.873 23.9 138.332C23.4238 137.693 23.1021 136.952 22.96 136.168C22.8489 135.687 22.8111 135.192 22.848 134.7C22.8835 134.273 22.9875 133.854 23.156 133.46C23.3213 133.072 23.5379 132.707 23.8 132.376C24.081 132.015 24.3885 131.675 24.72 131.36C25.016 131.088 25.312 130.824 25.612 130.56C25.902 130.318 26.1697 130.05 26.412 129.76C26.628 129.48 26.7932 129.165 26.9 128.828C27.0167 128.461 27.0306 128.07 26.94 127.696L29.732 127.112ZM28.444 121.228L29.176 124.72L26.376 125.308L25.644 121.82L28.444 121.228Z" fill="#EBEBEB"/>
<path d="M155.7 91.42C156.171 92.0381 156.517 92.7418 156.72 93.492C156.881 94.3157 156.764 95.1697 156.388 95.92C156.272 96.2 156.12 96.532 155.936 96.916C155.742 97.3115 155.584 97.7239 155.464 98.148C155.336 98.5771 155.281 99.0246 155.3 99.472C155.323 99.9256 155.482 100.362 155.756 100.724C155.947 100.994 156.199 101.214 156.492 101.368C156.757 101.505 157.047 101.587 157.344 101.608C157.645 101.627 157.947 101.585 158.232 101.484C158.525 101.382 158.802 101.236 159.052 101.052C159.341 100.847 159.584 100.586 159.768 100.284C159.943 100.006 160.078 99.7041 160.168 99.388C160.249 99.0806 160.296 98.7654 160.308 98.448C160.325 98.1589 160.325 97.8691 160.308 97.58L163.036 97.492C163.173 98.0379 163.217 98.6034 163.164 99.164C163.112 99.7144 162.977 100.254 162.764 100.764C162.547 101.279 162.259 101.761 161.908 102.196C161.549 102.649 161.132 103.052 160.668 103.396C160.14 103.786 159.558 104.097 158.94 104.32C158.326 104.543 157.673 104.643 157.02 104.612C156.341 104.574 155.678 104.389 155.076 104.072C154.377 103.687 153.776 103.146 153.32 102.492C153.019 102.101 152.779 101.667 152.608 101.204C152.462 100.801 152.382 100.377 152.372 99.948C152.36 99.5253 152.405 99.1029 152.504 98.692C152.613 98.2478 152.753 97.8121 152.924 97.388C153.08 97.016 153.236 96.652 153.404 96.296C153.571 95.9535 153.705 95.5959 153.804 95.228C153.894 94.8824 153.924 94.5237 153.892 94.168C153.845 93.7867 153.694 93.4256 153.456 93.124L155.7 91.42ZM152.1 86.62L154.216 89.488L151.908 91.192L149.792 88.324L152.1 86.62Z" fill="#EBEBEB"/>
<path d="M168.836 84.204C168.822 83.3488 168.977 82.4992 169.292 81.704C169.683 80.869 170.342 80.1889 171.164 79.772C171.448 79.6 171.8 79.408 172.216 79.188C172.638 78.9632 173.039 78.7023 173.416 78.408C173.81 78.1134 174.151 77.7535 174.424 77.344C174.698 76.9264 174.837 76.4351 174.824 75.936C174.831 75.5909 174.76 75.2488 174.618 74.9345C174.475 74.6203 174.264 74.342 174 74.12C173.747 73.9069 173.453 73.7476 173.136 73.652C172.81 73.5489 172.47 73.4963 172.128 73.496C171.739 73.4914 171.353 73.5634 170.992 73.708C170.661 73.8464 170.351 74.028 170.068 74.248C169.793 74.4648 169.545 74.7132 169.328 74.988C169.128 75.2366 168.944 75.4971 168.776 75.768L166.304 74.064C166.541 73.4917 166.872 72.963 167.284 72.5C167.688 72.0503 168.158 71.6634 168.676 71.352C169.204 71.0372 169.774 70.7975 170.368 70.64C170.979 70.4791 171.608 70.3984 172.24 70.4C172.962 70.4002 173.68 70.5053 174.372 70.712C175.061 70.9147 175.703 71.2534 176.26 71.708C176.835 72.1846 177.3 72.7794 177.624 73.452C178.002 74.2474 178.193 75.1192 178.18 76C178.187 76.5408 178.116 77.0798 177.968 77.6C177.83 78.0503 177.624 78.4767 177.356 78.864C177.09 79.2437 176.776 79.5867 176.42 79.884C176.034 80.2063 175.625 80.5004 175.196 80.764C174.82 80.992 174.44 81.212 174.06 81.42C173.694 81.6201 173.348 81.8531 173.024 82.116C172.719 82.3619 172.461 82.6599 172.26 82.996C172.052 83.3609 171.948 83.776 171.96 84.196L168.836 84.204ZM168.892 90.82V86.9H172.044V90.82H168.892Z" fill="#EBEBEB"/>
<path d="M70.228 106.928C70.0378 106.094 70.0133 105.231 70.156 104.388C70.3656 103.491 70.8697 102.689 71.588 102.112C71.832 101.884 72.132 101.624 72.496 101.312C72.8663 101.001 73.2114 100.661 73.528 100.296C73.8489 99.9228 74.1069 99.5 74.292 99.044C74.4779 98.5802 74.517 98.0706 74.404 97.584C74.3359 97.2262 74.1852 96.8893 73.964 96.6C73.7587 96.3521 73.5057 96.1481 73.22 96C72.9275 95.8437 72.6063 95.7484 72.276 95.72C71.9364 95.6883 71.594 95.7072 71.2599 95.776C70.8784 95.8529 70.5156 96.0037 70.192 96.22C69.8943 96.4231 69.6252 96.6653 69.392 96.94C69.1702 97.2096 68.9796 97.5035 68.824 97.816C68.6725 98.1007 68.539 98.3946 68.424 98.696L65.7 97.528C65.8139 96.9192 66.0288 96.3338 66.3359 95.796C66.6361 95.2705 67.0152 94.7943 67.4599 94.384C67.9088 93.9648 68.4153 93.6119 68.964 93.336C69.5299 93.0534 70.1293 92.8437 70.748 92.712C71.4538 92.5645 72.1771 92.5187 72.896 92.576C73.6116 92.6318 74.309 92.829 74.948 93.156C75.6109 93.5023 76.1898 93.9897 76.644 94.584C77.4769 95.7456 77.8889 97.1566 77.812 98.584C77.7717 99.0521 77.6583 99.511 77.476 99.944C77.295 100.373 77.0582 100.777 76.772 101.144C76.4603 101.538 76.1222 101.911 75.76 102.26C75.436 102.56 75.112 102.852 74.784 103.132C74.4673 103.404 74.1755 103.704 73.912 104.028C73.6665 104.334 73.4744 104.678 73.344 105.048C73.2192 105.452 73.2053 105.881 73.304 106.292L70.228 106.928ZM71.656 113.388L70.856 109.556L73.94 108.9L74.74 112.736L71.656 113.388Z" fill="#EBEBEB"/>
<path d="M166.416 137.956L171.76 137.844L174.392 137.8C175.268 137.78 176.136 137.8 177.008 137.776L176.832 137.956L176.808 133.48L177.008 133.68L171.7 133.656C169.936 133.656 168.172 133.608 166.404 133.588L166.516 133.48C166.516 134.212 166.48 134.948 166.46 135.696L166.416 137.956ZM166.416 137.956L166.36 135.74C166.36 134.996 166.316 134.24 166.308 133.48V133.372H166.416C168.184 133.352 169.948 133.308 171.712 133.304L177.008 133.28H177.208V133.48V137.956V138.136H177.028C176.136 138.136 175.24 138.136 174.352 138.112L171.688 138.068L166.416 137.956Z" fill="#EBEBEB"/>
<path d="M172.324 143.6L177.668 143.488L180.3 143.444C181.176 143.424 182.044 143.444 182.916 143.42L182.74 143.6L182.72 139.124L182.916 139.324L177.62 139.3C175.856 139.3 174.092 139.252 172.324 139.232L172.436 139.124C172.436 139.856 172.4 140.592 172.384 141.34L172.324 143.6ZM172.324 143.6L172.268 141.384C172.268 140.64 172.224 139.884 172.216 139.124V139.016H172.324C174.092 138.996 175.856 138.952 177.62 138.948L182.916 138.924H183.12V139.124L183.096 143.6V143.78H182.9C182.008 143.78 181.116 143.78 180.224 143.756L177.56 143.712L172.324 143.6Z" fill="#EBEBEB"/>
<path d="M160.5 143.6L165.844 143.488L168.476 143.444C169.348 143.424 170.22 143.444 171.092 143.42L170.916 143.6L170.9 139.124L171.1 139.324L165.804 139.3C164.04 139.3 162.272 139.252 160.508 139.232L160.616 139.124C160.616 139.856 160.584 140.592 160.564 141.34L160.5 143.6ZM160.5 143.6L160.444 141.384C160.424 140.64 160.4 139.884 160.392 139.124V139.016H160.5C162.264 138.996 164.032 138.952 165.796 138.948L171.092 138.924H171.292V139.124L171.3 143.6V143.78H171.124C170.232 143.78 169.336 143.78 168.448 143.756L165.784 143.712L160.5 143.6Z" fill="#EBEBEB"/>
<path d="M23.992 143.6L29.332 143.488L31.964 143.444C32.84 143.424 33.712 143.444 34.584 143.42L34.404 143.6L34.384 139.124L34.584 139.324L29.3 139.3C27.532 139.3 25.768 139.252 24.004 139.232L24.112 139.124C24.112 139.856 24.076 140.592 24.06 141.34L23.992 143.6ZM23.992 143.6L23.932 141.384C23.932 140.64 23.888 139.884 23.88 139.124V139.016H23.992C25.756 138.996 27.52 138.952 29.288 138.948L34.584 138.924H34.784V139.124L34.76 143.6V143.78H34.584C33.692 143.78 32.796 143.78 31.904 143.756L29.24 143.712L23.992 143.6Z" fill="#EBEBEB"/>
<path d="M23.992 19.108L29.332 18.996L31.964 18.948C32.84 18.948 33.712 18.948 34.584 18.948L34.404 19.128L34.384 14.652L34.584 14.848L29.3 14.8C27.532 14.8 25.768 14.756 24.004 14.736L24.112 14.628C24.112 15.36 24.076 16.096 24.06 16.84L23.992 19.108ZM23.992 19.108L23.932 16.892C23.932 16.144 23.888 15.388 23.88 14.632V14.524H23.992C25.756 14.524 27.52 14.46 29.288 14.46L34.584 14.436H34.784V14.64L34.76 19.116V19.292H34.584C33.692 19.292 32.796 19.292 31.904 19.272L29.24 19.2L23.992 19.108Z" fill="#EBEBEB"/>
<path d="M18.1 24.752L23.44 24.64L26.072 24.592C26.948 24.592 27.816 24.592 28.692 24.592L28.512 24.772V20.296L28.712 20.492L23.38 20.448C21.612 20.448 19.848 20.4 18.1 20.4L18.208 20.292C18.208 21.024 18.172 21.76 18.156 22.504L18.1 24.752ZM18.1 24.752L18.04 22.536C18.04 21.788 17.996 21.032 17.988 20.276V20.168H18.1C19.864 20.168 21.628 20.104 23.396 20.104L28.692 20.08H28.892V20.284L28.868 24.76V24.936H28.692C27.796 24.936 26.904 24.936 26.012 24.936L23.348 24.888L18.1 24.752Z" fill="#EBEBEB"/>
<path d="M172.324 19.112L177.668 19L180.3 18.956C181.176 18.956 182.044 18.956 182.916 18.932L182.74 19.112L182.72 14.636L182.916 14.836L177.62 14.8C175.856 14.8 174.092 14.756 172.324 14.736L172.436 14.628C172.436 15.36 172.4 16.096 172.384 16.84L172.324 19.112ZM172.324 19.112L172.268 16.896C172.268 16.148 172.224 15.396 172.216 14.636V14.528H172.324C174.092 14.508 175.856 14.468 177.62 14.464L182.9 14.436H183.104V14.636L183.084 19.112V19.292H182.9C182.008 19.292 181.116 19.292 180.224 19.292L177.56 19.248L172.324 19.112Z" fill="#EBEBEB"/>
<path d="M114.984 77.132L109.644 77.244L107.012 77.288C106.136 77.308 105.264 77.288 104.392 77.312L104.572 77.132L104.592 81.608L104.392 81.408L109.688 81.436C111.456 81.436 113.22 81.48 114.984 81.5L114.876 81.608C114.876 80.876 114.912 80.14 114.928 79.396L114.984 77.132ZM114.984 77.132L115.044 79.348C115.044 80.096 115.088 80.848 115.096 81.608V81.716H114.984C113.22 81.716 111.456 81.776 109.688 81.78L104.392 81.804H104.192V81.6L104.216 77.124V76.944H104.392C105.284 76.944 106.18 76.944 107.072 76.964L109.736 77.008L114.984 77.132Z" fill="#EBEBEB"/>
<path d="M109.076 71.488L103.736 71.6L101.104 71.644C100.228 71.644 99.356 71.644 98.484 71.668L98.664 71.488L98.684 75.964L98.484 75.764L103.78 75.792C105.544 75.792 107.312 75.836 109.076 75.856L108.968 75.964C108.968 75.232 109 74.496 109.02 73.752L109.076 71.488ZM109.076 71.488L109.132 73.704C109.152 74.452 109.18 75.204 109.184 75.964V76.072H109.072C107.308 76.092 105.54 76.132 103.776 76.136L98.48 76.16H98.28V75.96L98.304 71.484V71.304H98.5C99.392 71.304 100.288 71.304 101.18 71.324L103.844 71.368L109.076 71.488Z" fill="#EBEBEB"/>
<path d="M15.848 163.808L37.012 163.712L58.176 163.676L100.5 163.608L142.824 163.676L163.988 163.712L185.152 163.808L163.988 163.908L142.824 163.944L100.5 164.008L58.176 163.944L37.012 163.908L15.848 163.808Z" fill="#263238"/>
<path d="M100.5 184.48C140.351 184.48 172.656 181.335 172.656 177.456C172.656 173.577 140.351 170.432 100.5 170.432C60.6493 170.432 28.344 173.577 28.344 177.456C28.344 181.335 60.6493 184.48 100.5 184.48Z" fill="#EBEBEB"/>
<path d="M171.3 119.796C169.78 118.308 167.816 116.508 165.492 117.152C163.308 117.756 162.472 120.14 162.08 122.128C161.576 124.692 161.184 127.276 160.776 129.856C160.368 132.436 159.976 135.056 159.604 137.676C159.391 139.148 159.183 140.621 158.98 142.096C158.876 142.832 158.773 143.568 158.672 144.304C158.572 145.028 158.452 145.752 158.412 146.48C158.412 146.712 158.764 146.744 158.812 146.524C159.096 145.296 159.212 144.016 159.392 142.772C159.572 141.528 159.756 140.26 159.936 139.008C160.3 136.516 160.68 134.028 161.052 131.536C161.424 129.044 161.816 126.56 162.216 124.072C162.552 121.96 162.712 119.34 164.58 117.948C165.088 117.601 165.675 117.389 166.288 117.332C166.9 117.274 167.517 117.374 168.08 117.62C169.308 118.092 170.292 118.972 171.256 119.844C171.3 119.872 171.34 119.828 171.3 119.796Z" fill="#263238"/>
<path d="M169.232 118.276C169.232 118.276 166.124 117.16 164.592 119.424C163.06 121.688 164.892 127.456 179.032 130.708C178.618 126.288 177.469 121.969 175.632 117.928C172.6 111.316 167.196 113.82 169.232 118.276Z" fill="#007FFF"/>
<path d="M178.22 129.764C178.006 129.368 177.769 128.986 177.508 128.62C177.272 128.256 177.032 127.892 176.792 127.532C176.612 127.26 176.424 126.988 176.24 126.732C176.24 126.668 176.24 126.6 176.264 126.532L176.312 126.164C176.348 125.9 176.388 125.632 176.424 125.364C176.46 125.096 176.508 124.84 176.56 124.564C176.592 124.281 176.654 124.002 176.744 123.732C176.744 123.688 176.688 123.668 176.684 123.732C176.654 123.892 176.611 124.05 176.556 124.204L176.46 124.56C176.392 124.828 176.328 125.096 176.268 125.36C176.208 125.624 176.164 125.86 176.12 126.108C176.1 126.232 176.084 126.352 176.068 126.472C175.816 126.112 175.556 125.756 175.292 125.408C174.54 124.42 173.748 123.468 172.924 122.536C172.924 122.536 172.924 122.536 172.924 122.512C173 121.028 172.964 119.556 173.292 118.112C173.292 118.072 173.244 118.048 173.232 118.088C172.859 119.466 172.681 120.889 172.704 122.316C172.412 121.988 172.112 121.66 171.812 121.336C171.12 120.596 170.42 119.864 169.704 119.152C169.676 119.124 169.628 119.152 169.656 119.196C170.856 120.48 171.98 121.816 173.084 123.176C172.22 123.162 171.356 123.194 170.496 123.272C169.54 123.34 168.588 123.464 167.636 123.596C167.592 123.596 167.604 123.664 167.636 123.66C168.582 123.521 169.536 123.435 170.492 123.404C171.416 123.364 172.332 123.404 173.256 123.404C173.853 124.14 174.441 124.884 175.02 125.636H174.9C174.684 125.636 174.468 125.636 174.252 125.636C173.82 125.636 173.392 125.676 172.964 125.712C172.085 125.785 171.212 125.919 170.352 126.112C170.343 126.112 170.335 126.115 170.329 126.121C170.323 126.127 170.32 126.135 170.32 126.144C170.32 126.152 170.323 126.161 170.329 126.167C170.335 126.173 170.343 126.176 170.352 126.176C171.22 126.076 172.092 125.996 172.964 125.964C173.364 125.964 173.8 125.964 174.216 125.964H174.9C175.02 125.98 175.141 125.969 175.256 125.932C175.635 126.425 176.013 126.92 176.392 127.416C176.692 127.816 176.988 128.216 177.28 128.616C177.572 129.016 177.848 129.476 178.176 129.86C178.192 129.832 178.236 129.796 178.22 129.764Z" fill="#263238"/>
<path d="M170.584 121.488C170.083 121.424 169.577 121.4 169.072 121.416C168.568 121.416 168.06 121.416 167.556 121.448C167.512 121.448 167.516 121.512 167.556 121.512C168.068 121.472 168.58 121.464 169.092 121.472C169.604 121.48 170.084 121.528 170.576 121.512C170.6 121.512 170.6 121.492 170.584 121.488Z" fill="#263238"/>
<path d="M175.024 122.628C175.08 122.144 175.14 121.66 175.244 121.184C175.244 121.176 175.241 121.167 175.235 121.161C175.229 121.155 175.22 121.152 175.212 121.152C175.203 121.152 175.195 121.155 175.189 121.161C175.183 121.167 175.18 121.176 175.18 121.184C175.108 121.66 175.016 122.132 174.948 122.608C174.912 122.844 174.88 123.084 174.848 123.32C174.807 123.543 174.789 123.769 174.792 123.996C174.795 124.005 174.8 124.013 174.808 124.018C174.815 124.024 174.825 124.027 174.834 124.027C174.843 124.027 174.852 124.024 174.86 124.018C174.868 124.013 174.873 124.005 174.876 123.996C174.918 123.773 174.942 123.547 174.948 123.32C174.968 123.088 174.996 122.856 175.024 122.628Z" fill="#263238"/>
<path d="M174.1 117.276C173.976 117.748 173.852 118.224 173.768 118.7C173.724 118.944 173.684 119.188 173.652 119.432C173.608 119.668 173.592 119.908 173.604 120.148C173.604 120.153 173.606 120.158 173.61 120.162C173.614 120.166 173.619 120.168 173.624 120.168C173.629 120.168 173.634 120.166 173.638 120.162C173.642 120.158 173.644 120.153 173.644 120.148C173.7 119.925 173.736 119.697 173.752 119.468C173.784 119.232 173.82 119 173.86 118.764C173.948 118.272 174.036 117.784 174.16 117.3C174.164 117.26 174.1 117.236 174.1 117.276Z" fill="#263238"/>
<path d="M155.7 145.956C155.62 145.068 155.532 144.176 155.44 143.288C155.251 141.528 155.039 139.769 154.804 138.012C154.568 136.264 154.344 134.508 154.06 132.764C153.958 131.948 153.777 131.145 153.52 130.364C153.429 130.031 153.262 129.723 153.033 129.465C152.804 129.206 152.519 129.003 152.2 128.872C150.536 128.3 149.4 130.024 148.744 131.244C148.724 131.28 148.776 131.308 148.8 131.276C149.2 130.696 150.312 129.076 151.576 129.152C152.424 129.2 153.104 129.804 153.512 131.92C154.528 137.196 155.444 147.92 155.552 148.604C155.608 148.976 155.868 148.96 155.872 148.56C155.856 147.704 155.756 146.828 155.7 145.956Z" fill="#263238"/>
<path d="M149.172 130.608C149.172 130.608 150.628 125.472 147.412 128.04C142.06 132.316 141.872 141.6 141.872 141.6C141.872 141.6 151.384 136.076 152.564 132.432C154.328 127.016 149.172 130.608 149.172 130.608Z" fill="#007FFF"/>
<path d="M150.972 133.128C150.228 133.28 149.468 133.38 148.716 133.488L147.644 133.64C147.404 133.672 147.16 133.696 146.916 133.724C147.624 132.748 148.34 131.776 149.02 130.78C149.026 130.772 149.029 130.761 149.028 130.75C149.026 130.74 149.02 130.73 149.012 130.724C149.004 130.718 148.993 130.715 148.982 130.716C148.972 130.718 148.962 130.724 148.956 130.732C148.389 131.314 147.855 131.927 147.356 132.568L146.932 131.368C146.772 130.908 146.596 130.452 146.48 129.976C146.48 129.936 146.408 129.976 146.42 129.996C146.548 130.464 146.64 130.948 146.768 131.42C146.896 131.892 147.028 132.324 147.188 132.768C146.84 133.22 146.504 133.684 146.18 134.152C146.016 133.688 145.812 133.24 145.672 132.768C145.672 132.728 145.596 132.748 145.608 132.768C145.78 133.292 145.872 133.832 146.032 134.368C145.812 134.688 145.596 135.008 145.388 135.328C144.988 135.924 144.64 136.528 144.288 137.136C144.26 137.148 144.237 137.168 144.222 137.194C144.207 137.22 144.201 137.25 144.204 137.28C143.604 138.32 143.032 139.372 142.468 140.436C142.464 140.443 142.463 140.452 142.465 140.46C142.467 140.469 142.473 140.476 142.48 140.48C142.487 140.484 142.496 140.485 142.504 140.483C142.513 140.481 142.52 140.475 142.524 140.468C143.088 139.416 143.724 138.392 144.368 137.388C144.469 137.355 144.574 137.334 144.68 137.328L145.008 137.256C145.252 137.204 145.496 137.14 145.74 137.08C146.224 136.96 146.7 136.844 147.192 136.76C147.232 136.76 147.212 136.692 147.192 136.7C146.616 136.808 146.04 136.876 145.456 136.94C145.18 136.972 144.908 137.008 144.636 137.052H144.596C144.935 136.535 145.281 136.02 145.636 135.508C145.98 135.008 146.336 134.512 146.692 134.016C147.024 133.972 147.348 133.884 147.676 133.824L148.78 133.608C149.516 133.46 150.252 133.296 150.992 133.176C151.032 133.2 151.012 133.12 150.972 133.128Z" fill="#263238"/>
<path d="M145.256 133.636C145.212 133.5 145.172 133.364 145.128 133.236C145.039 132.952 144.965 132.664 144.908 132.372C144.908 132.332 144.84 132.352 144.848 132.372C144.912 132.664 144.98 132.952 145.044 133.24C145.102 133.531 145.185 133.816 145.292 134.092C145.299 134.104 145.309 134.113 145.322 134.118C145.334 134.123 145.348 134.124 145.361 134.12C145.373 134.116 145.385 134.108 145.393 134.097C145.4 134.087 145.405 134.073 145.404 134.06C145.36 133.924 145.3 133.78 145.256 133.636Z" fill="#263238"/>
<path d="M151.944 131.94C151.512 132.004 151.076 132.036 150.636 132.076C150.196 132.116 149.768 132.172 149.332 132.24C149.308 132.24 149.308 132.28 149.332 132.276C149.768 132.248 150.204 132.212 150.64 132.156C151.076 132.1 151.508 132.036 151.948 132.004C151.988 132 151.984 131.936 151.944 131.94Z" fill="#263238"/>
<path d="M162.68 139.456C162.508 135.676 162.28 131.9 161.88 128.136C161.692 126.26 161.48 124.388 161.216 122.536C160.983 120.701 160.621 118.884 160.132 117.1C159.797 115.713 159.182 114.409 158.324 113.268C157.9 112.713 157.342 112.275 156.703 111.995C156.063 111.715 155.363 111.603 154.668 111.668C153.016 111.872 151.68 112.916 150.528 114.048C149.236 115.32 148.052 116.708 146.856 118.048C146.552 118.392 146.252 118.74 145.952 119.088C145.928 119.12 145.972 119.164 146 119.132C147.172 117.788 148.4 116.48 149.66 115.232C150.836 114.076 152.06 112.832 153.66 112.336C154.418 112.096 155.228 112.076 155.996 112.28C156.608 112.473 157.159 112.822 157.596 113.292C158.516 114.244 159.028 115.536 159.396 116.788C160.412 120.264 160.776 123.908 161.152 127.496C161.528 131.084 161.796 134.796 161.98 138.46C162.164 142.124 162.308 145.824 162.664 149.496C162.708 149.948 162.764 150.4 162.824 150.852C162.86 151.152 163.332 151.156 163.308 150.852C163.024 147.052 162.848 143.256 162.68 139.456Z" fill="#263238"/>
<path d="M150.328 114.448C150.328 114.448 152.488 110.448 149.928 109.168C147.368 107.888 138.84 117.416 136.348 131.352C136.348 131.352 150.136 125.252 154.82 119.172C159.504 113.092 154.2 111.756 150.328 114.448Z" fill="#007FFF"/>
<path d="M152.356 117.696C150.808 117.696 149.26 117.58 147.712 117.588L148.584 116.592C149.015 116.15 149.416 115.679 149.784 115.184C149.804 115.152 149.76 115.108 149.728 115.132C149.307 115.492 148.915 115.886 148.556 116.308C148.156 116.708 147.78 117.132 147.396 117.548C146.804 118.192 146.224 118.84 145.644 119.496C145.644 119.432 145.644 119.368 145.644 119.308C145.644 119.036 145.644 118.764 145.644 118.508C145.644 117.984 145.644 117.456 145.644 116.932C145.644 115.868 145.644 114.796 145.724 113.732C145.724 113.692 145.664 113.692 145.66 113.732C145.588 114.804 145.476 115.868 145.424 116.932C145.4 117.46 145.388 117.984 145.38 118.512C145.38 118.78 145.38 119.052 145.38 119.312C145.38 119.46 145.38 119.616 145.38 119.768C145.292 119.872 145.196 119.972 145.108 120.072C143.872 121.488 142.708 122.948 141.548 124.436C141.548 124.356 141.548 124.268 141.528 124.188C141.528 124.024 141.492 123.86 141.476 123.696C141.436 123.34 141.388 122.988 141.332 122.632C141.276 122.276 141.232 121.968 141.176 121.636C141.12 121.304 141.02 120.888 140.992 120.512C140.994 120.507 140.994 120.502 140.994 120.497C140.993 120.492 140.991 120.487 140.988 120.483C140.985 120.478 140.981 120.475 140.977 120.473C140.972 120.47 140.967 120.469 140.962 120.469C140.957 120.469 140.952 120.47 140.947 120.473C140.943 120.475 140.939 120.478 140.936 120.483C140.933 120.487 140.931 120.492 140.93 120.497C140.93 120.502 140.93 120.507 140.932 120.512C140.995 120.888 141.037 121.267 141.06 121.648L141.156 122.672C141.184 123.012 141.216 123.352 141.252 123.696L141.3 124.188C141.3 124.268 141.32 124.352 141.332 124.432C141.336 124.502 141.358 124.569 141.396 124.628L140.808 125.396C140.008 126.432 139.256 127.48 138.488 128.524C138.464 128.556 138.512 128.6 138.536 128.568C139.264 127.62 140.012 126.688 140.768 125.768C141.336 125.792 141.916 125.748 142.484 125.74C143.052 125.732 143.684 125.74 144.276 125.74C144.284 125.74 144.293 125.737 144.299 125.731C144.305 125.725 144.308 125.717 144.308 125.708C144.308 125.7 144.305 125.691 144.299 125.685C144.293 125.679 144.284 125.676 144.276 125.676C143.676 125.676 143.076 125.696 142.48 125.7C141.884 125.704 141.38 125.676 140.836 125.7C141.5 124.9 142.176 124.1 142.836 123.28L143.62 122.4C143.849 122.43 144.081 122.438 144.312 122.424H145.112C145.62 122.424 146.128 122.424 146.64 122.404C147.692 122.404 148.744 122.352 149.796 122.348C149.801 122.35 149.806 122.35 149.811 122.35C149.816 122.349 149.821 122.347 149.825 122.344C149.83 122.341 149.833 122.337 149.835 122.333C149.838 122.328 149.839 122.323 149.839 122.318C149.839 122.313 149.838 122.308 149.835 122.303C149.833 122.299 149.83 122.295 149.825 122.292C149.821 122.289 149.816 122.287 149.811 122.286C149.806 122.286 149.801 122.286 149.796 122.288C148.74 122.288 147.688 122.228 146.636 122.2C146.124 122.2 145.616 122.172 145.104 122.164H144.304C144.152 122.164 143.992 122.164 143.832 122.164L145.572 120.104C145.586 120.095 145.597 120.083 145.604 120.068C146.168 119.4 146.732 118.736 147.304 118.068C147.384 117.98 147.464 117.892 147.54 117.8C149.14 117.848 150.74 117.744 152.34 117.776C152.4 117.76 152.4 117.696 152.356 117.696Z" fill="#263238"/>
<path d="M151.564 120.436H151.188C151.181 120.436 151.173 120.439 151.168 120.444C151.163 120.449 151.16 120.457 151.16 120.464C151.16 120.471 151.163 120.479 151.168 120.484C151.173 120.489 151.181 120.492 151.188 120.492H151.56C151.565 120.49 151.57 120.486 151.573 120.481C151.576 120.476 151.578 120.471 151.579 120.465C151.579 120.459 151.578 120.454 151.575 120.449C151.573 120.443 151.569 120.439 151.564 120.436V120.436Z" fill="#263238"/>
<path d="M150.728 120.44C150.232 120.44 149.736 120.44 149.24 120.408L148.5 120.4C148.27 120.372 148.038 120.372 147.808 120.4C147.802 120.4 147.796 120.403 147.791 120.407C147.787 120.412 147.784 120.418 147.784 120.424C147.784 120.43 147.787 120.436 147.791 120.441C147.796 120.445 147.802 120.448 147.808 120.448C148.037 120.494 148.271 120.51 148.504 120.496H149.248H150.736C150.772 120.504 150.772 120.44 150.728 120.44Z" fill="#263238"/>
<path d="M146.396 125.096C145.387 124.926 144.367 124.834 143.344 124.82V124.84C144.36 124.936 145.372 124.992 146.38 125.156C146.42 125.164 146.436 125.1 146.396 125.096Z" fill="#263238"/>
<path d="M142.248 120.656C142.248 120.568 142.228 120.48 142.216 120.392C142.192 120.192 142.16 119.992 142.128 119.796C142.068 119.416 142.004 119.04 141.932 118.66C141.932 118.628 141.864 118.636 141.868 118.66C141.916 119.06 141.96 119.44 141.996 119.832L142.044 120.408C142.039 120.592 142.064 120.776 142.12 120.952C142.128 120.964 142.139 120.973 142.152 120.979C142.166 120.985 142.18 120.987 142.194 120.985C142.209 120.983 142.222 120.977 142.233 120.968C142.244 120.958 142.252 120.946 142.256 120.932C142.27 120.84 142.267 120.747 142.248 120.656V120.656Z" fill="#263238"/>
<path d="M162.544 109.316C162.048 108.396 161.42 107.184 160.188 107.26C159.172 107.324 158.712 108.36 158.496 109.22C157.824 111.872 157.776 114.672 157.648 117.392C157.368 123.14 157.12 128.892 157.084 134.648C157.084 136.248 157.084 137.848 157.084 139.448C157.084 141.076 157.084 142.712 157.196 144.336C157.196 144.368 157.209 144.398 157.231 144.421C157.254 144.443 157.284 144.456 157.316 144.456C157.348 144.456 157.378 144.443 157.401 144.421C157.423 144.398 157.436 144.368 157.436 144.336C157.436 142.944 157.396 141.536 157.392 140.16C157.388 138.784 157.392 137.444 157.416 136.084C157.461 133.335 157.535 130.585 157.636 127.836C157.74 125.104 157.86 122.372 157.976 119.64C158.032 118.276 158.092 116.908 158.152 115.544C158.212 114.18 158.268 112.9 158.42 111.584C158.504 110.844 158.612 110.108 158.768 109.384C158.844 108.844 159.064 108.334 159.404 107.908C159.639 107.676 159.949 107.535 160.278 107.512C160.608 107.489 160.935 107.584 161.2 107.78C161.764 108.186 162.205 108.74 162.476 109.38C162.484 109.389 162.496 109.394 162.509 109.395C162.521 109.395 162.533 109.39 162.542 109.382C162.551 109.374 162.556 109.362 162.557 109.349C162.557 109.337 162.552 109.325 162.544 109.316V109.316Z" fill="#263238"/>
<path d="M162.208 108.876C162.208 108.876 161.196 105.3 163.436 107.088C167.164 110.064 167.296 116.54 167.296 116.54C167.296 116.54 160.668 112.692 159.844 110.14C158.616 106.372 162.208 108.876 162.208 108.876Z" fill="#007FFF"/>
<path d="M165.9 113.888C165.84 113.788 165.776 113.692 165.712 113.592C165.72 113.491 165.72 113.389 165.712 113.288C165.712 113.136 165.712 112.98 165.712 112.828C165.712 112.524 165.712 112.22 165.744 111.92C165.744 111.912 165.741 111.903 165.735 111.897C165.729 111.891 165.72 111.888 165.712 111.888C165.704 111.888 165.695 111.891 165.689 111.897C165.683 111.903 165.68 111.912 165.68 111.92C165.68 112.216 165.652 112.516 165.644 112.812C165.644 112.96 165.644 113.108 165.644 113.256C165.644 113.312 165.644 113.38 165.644 113.448C165.384 113.048 165.116 112.648 164.844 112.248C164.764 112.132 164.68 112.02 164.6 111.908C164.557 111.52 164.551 111.129 164.58 110.74C164.58 110.34 164.58 109.908 164.604 109.492C164.604 109.452 164.54 109.452 164.54 109.492C164.54 109.924 164.508 110.356 164.484 110.788C164.458 111.095 164.45 111.404 164.46 111.712C163.82 110.844 163.14 110.004 162.46 109.168C162.436 109.14 162.388 109.168 162.412 109.208C162.836 109.748 163.244 110.3 163.644 110.86C162.864 110.676 162.072 110.572 161.28 110.46C161.24 110.46 161.224 110.516 161.28 110.524C162.12 110.652 162.944 110.86 163.772 111.044C164.088 111.492 164.404 111.94 164.712 112.392L165.088 112.944H165.056L164.796 112.908L164.244 112.86C163.864 112.828 163.48 112.808 163.096 112.788C163.056 112.788 163.06 112.852 163.096 112.852C163.472 112.852 163.848 112.888 164.22 112.928L164.816 113L165.072 113.032H165.148C165.36 113.344 165.576 113.656 165.784 113.968C166.16 114.524 166.496 115.116 166.892 115.648C166.897 115.652 166.904 115.655 166.91 115.656C166.917 115.656 166.924 115.655 166.93 115.651C166.936 115.648 166.94 115.642 166.943 115.636C166.945 115.63 166.946 115.623 166.944 115.616C166.631 115.02 166.282 114.443 165.9 113.888V113.888Z" fill="#263238"/>
<path d="M164.252 109.848C164.252 109.708 164.252 109.568 164.252 109.428C164.244 109.136 164.256 108.843 164.288 108.552C164.29 108.547 164.29 108.542 164.29 108.537C164.289 108.532 164.287 108.527 164.284 108.523C164.281 108.518 164.277 108.515 164.273 108.513C164.268 108.51 164.263 108.509 164.258 108.509C164.253 108.509 164.248 108.51 164.243 108.513C164.239 108.515 164.235 108.518 164.232 108.523C164.229 108.527 164.227 108.532 164.226 108.537C164.226 108.542 164.226 108.547 164.228 108.552C164.228 108.844 164.196 109.132 164.18 109.42C164.18 109.568 164.18 109.712 164.18 109.856V110.056C164.17 110.125 164.17 110.195 164.18 110.264C164.18 110.271 164.183 110.279 164.188 110.284C164.193 110.289 164.201 110.292 164.208 110.292C164.215 110.292 164.223 110.289 164.228 110.284C164.233 110.279 164.236 110.271 164.236 110.264C164.246 110.2 164.246 110.136 164.236 110.072L164.252 109.848Z" fill="#263238"/>
<path d="M163.432 111.328C163.184 111.284 162.932 111.272 162.684 111.252C162.436 111.232 162.14 111.204 161.884 111.168C161.876 111.168 161.867 111.171 161.861 111.177C161.855 111.183 161.852 111.192 161.852 111.2C161.852 111.209 161.855 111.217 161.861 111.223C161.867 111.229 161.876 111.232 161.884 111.232C162.408 111.264 162.928 111.36 163.452 111.376C163.456 111.38 163.46 111.332 163.432 111.328Z" fill="#263238"/>
<path d="M165.512 111.348C165.532 111.376 165.512 111.456 165.512 111.488V111.852C165.512 111.936 165.512 112.02 165.512 112.104C165.498 112.175 165.498 112.249 165.512 112.32C165.512 112.32 165.532 112.32 165.536 112.32C165.544 112.286 165.544 112.25 165.536 112.216C165.534 112.177 165.534 112.139 165.536 112.1V111.852C165.536 111.768 165.536 111.684 165.536 111.6V111.488C165.536 111.452 165.536 111.376 165.536 111.348C165.536 111.32 165.472 111.288 165.512 111.348Z" fill="#263238"/>
<path d="M162.696 128.4C161.304 127.356 160.052 125.852 158.176 125.776C156.628 125.716 155.544 126.88 154.924 128.176C154.614 128.867 154.361 129.583 154.168 130.316C153.888 131.292 153.621 132.275 153.368 133.264C152.885 135.208 152.472 137.168 152.128 139.144C151.94 140.244 151.764 141.348 151.624 142.456C151.448 143.579 151.34 144.712 151.3 145.848C151.299 145.892 151.315 145.934 151.344 145.967C151.373 146 151.413 146.021 151.456 146.026C151.499 146.031 151.543 146.019 151.579 145.994C151.614 145.968 151.639 145.931 151.648 145.888C151.836 144.96 151.916 144.004 152.048 143.068C152.18 142.132 152.328 141.184 152.484 140.248C152.804 138.381 153.175 136.515 153.596 134.648C153.996 132.892 154.396 131.112 154.952 129.404C155.352 128.18 156.008 126.752 157.332 126.312C159.332 125.644 161.168 127.344 162.64 128.452C162.684 128.472 162.728 128.424 162.696 128.4Z" fill="#263238"/>
<path d="M161.256 127.4C161.256 127.4 159.968 123.732 161.828 123C164.628 121.924 171.9 130.132 170.472 142.708C170.472 142.708 164.844 139.608 160.684 136.116C156.524 132.624 155.484 128.068 157.296 126.892C159.108 125.716 161.256 127.4 161.256 127.4Z" fill="#007FFF"/>
<path d="M169.632 140.024C169.439 139.585 169.213 139.161 168.956 138.756C168.716 138.324 168.476 137.896 168.228 137.472C167.744 136.644 167.264 135.816 166.768 134.992L166.524 134.592C166.524 134.544 166.544 134.492 166.552 134.444L166.636 134.08C166.7 133.808 166.748 133.532 166.796 133.256C166.9 132.72 166.992 132.176 167.136 131.656C167.136 131.62 167.084 131.608 167.076 131.656C166.96 132.192 166.788 132.724 166.632 133.256C166.552 133.516 166.468 133.772 166.4 134.036L166.328 134.304C165.732 133.324 165.128 132.348 164.464 131.404C164.507 131.275 164.53 131.14 164.532 131.004C164.552 130.82 164.572 130.636 164.596 130.452C164.644 130.052 164.692 129.624 164.752 129.212C164.872 128.412 164.992 127.612 165.192 126.812C165.192 126.772 165.14 126.76 165.132 126.812C164.928 127.612 164.712 128.412 164.56 129.212C164.488 129.612 164.416 130.012 164.364 130.412C164.34 130.612 164.316 130.812 164.296 131.012C164.296 131.068 164.296 131.132 164.272 131.192C164.072 130.908 163.872 130.62 163.66 130.344C163.016 129.496 162.348 128.672 161.66 127.848C161.636 127.816 161.58 127.848 161.608 127.884C162.76 129.357 163.818 130.902 164.776 132.508L165.324 133.4L165.14 133.376C164.904 133.344 164.668 133.332 164.432 133.308L163.008 133.184C162.06 133.108 161.108 133.052 160.164 132.952C160.124 132.952 160.112 133.008 160.164 133.012C161.124 133.124 162.076 133.276 163.032 133.412C163.504 133.48 163.972 133.544 164.444 133.604C164.801 133.675 165.164 133.711 165.528 133.712C165.9 134.32 166.276 134.912 166.648 135.528C166.564 135.528 166.476 135.528 166.396 135.528H165.04C164.428 135.528 163.816 135.528 163.208 135.528C163.164 135.528 163.172 135.588 163.208 135.588C163.828 135.588 164.444 135.628 165.064 135.66L165.944 135.712L166.384 135.744C166.516 135.775 166.652 135.775 166.784 135.744L167.736 137.288C168.028 137.764 168.324 138.236 168.624 138.708C168.907 139.208 169.226 139.687 169.58 140.14C169.596 140.084 169.648 140.064 169.632 140.024Z" fill="#263238"/>
<path d="M166.948 129.86C166.892 130.265 166.808 130.666 166.696 131.06C166.592 131.46 166.476 131.86 166.344 132.26C166.342 132.265 166.341 132.271 166.341 132.276C166.341 132.282 166.342 132.287 166.345 132.292C166.347 132.297 166.35 132.302 166.355 132.305C166.359 132.309 166.364 132.312 166.369 132.313C166.374 132.315 166.38 132.316 166.385 132.315C166.391 132.314 166.396 132.313 166.401 132.31C166.406 132.307 166.41 132.303 166.413 132.299C166.416 132.295 166.419 132.289 166.42 132.284C166.544 131.884 166.656 131.484 166.752 131.084C166.848 130.684 166.912 130.284 167.012 129.864C167.013 129.856 167.01 129.847 167.004 129.841C166.998 129.834 166.99 129.831 166.982 129.83C166.973 129.829 166.965 129.832 166.959 129.838C166.952 129.844 166.949 129.852 166.948 129.86V129.86Z" fill="#263238"/>
<path d="M162.812 132.316C162.726 132.243 162.617 132.203 162.504 132.2L161.972 132.128C161.644 132.084 161.312 132.048 160.984 132.008C160.296 131.928 159.612 131.86 158.924 131.776C158.884 131.776 158.872 131.832 158.924 131.836C159.572 131.916 160.216 132.016 160.864 132.1L161.812 132.224L162.272 132.272C162.449 132.274 162.625 132.305 162.792 132.364C162.798 132.364 162.803 132.363 162.808 132.359C162.813 132.356 162.816 132.352 162.818 132.347C162.82 132.342 162.821 132.336 162.82 132.33C162.819 132.325 162.816 132.32 162.812 132.316Z" fill="#263238"/>
<path d="M166.94 137.848C166.616 137.82 166.288 137.808 165.964 137.8H165.472H165.236C165.134 137.81 165.03 137.81 164.928 137.8C164.884 137.8 164.88 137.868 164.928 137.86C165.024 137.85 165.12 137.85 165.216 137.86H165.472L165.96 137.892C166.284 137.912 166.612 137.932 166.936 137.932C166.976 137.916 166.98 137.848 166.94 137.848Z" fill="#263238"/>
<path d="M168.924 136.44L169.032 135.888C169.096 135.524 169.164 135.16 169.232 134.8C169.232 134.792 169.229 134.783 169.223 134.777C169.217 134.771 169.209 134.768 169.2 134.768C169.192 134.768 169.183 134.771 169.177 134.777C169.171 134.783 169.168 134.792 169.168 134.8L168.928 135.86C168.888 136.036 168.848 136.212 168.812 136.388C168.812 136.472 168.78 136.552 168.76 136.636C168.735 136.72 168.725 136.808 168.732 136.896C168.733 136.904 168.736 136.912 168.741 136.918C168.746 136.924 168.753 136.929 168.761 136.931C168.769 136.933 168.777 136.933 168.785 136.93C168.793 136.927 168.799 136.923 168.804 136.916C168.874 136.766 168.914 136.605 168.924 136.44V136.44Z" fill="#263238"/>
<path d="M149.86 144.44L150.252 148.9L151.584 163.952H163.372L165.036 148.9L165.528 144.44H149.86Z" fill="#37474F"/>
<path d="M149.86 144.44L150.252 148.9H165.036L165.528 144.44H149.86Z" fill="#263238"/>
<path d="M148.692 146.844H166.696V143.228H148.692V146.844Z" fill="#37474F"/>
<path d="M86.1 129.652C86.1 123.252 87.1453 117.501 89.236 112.4C91.3266 107.299 95.6386 102.855 102.172 99.068C104.135 97.892 106.553 96.5587 109.428 95.068C112.386 93.5146 115.206 91.7106 117.856 89.676C120.565 87.6272 122.917 85.1444 124.816 82.328C126.73 79.4571 127.723 76.0701 127.66 72.62C127.717 70.1073 127.183 67.6162 126.1 65.348C125.101 63.3231 123.701 61.5226 121.984 60.056C120.221 58.5866 118.18 57.4862 115.984 56.82C113.732 56.1093 111.385 55.7464 109.024 55.744C106.348 55.7074 103.691 56.2023 101.208 57.2C98.9236 58.1414 96.7805 59.3946 94.84 60.924C92.9487 62.4213 91.2373 64.1327 89.74 66.024C88.3616 67.7432 87.0861 69.5424 85.92 71.412H82.968L68.86 59.652C70.4918 55.6976 72.7785 52.0464 75.624 48.852C78.4063 45.7374 81.6427 43.0606 85.224 40.912C88.8671 38.7461 92.7979 37.1059 96.9 36.04C101.123 34.9247 105.473 34.364 109.84 34.372C114.82 34.3748 119.773 35.1011 124.544 36.528C129.302 37.9283 133.733 40.2616 137.58 43.392C141.554 46.6813 144.765 50.7949 146.992 55.448C149.408 60.3494 150.616 66.1987 150.616 72.996C150.676 76.7403 150.182 80.4728 149.148 84.072C148.209 87.1854 146.785 90.131 144.928 92.8C143.089 95.4239 140.914 97.796 138.46 99.856C135.795 102.076 132.977 104.107 130.028 105.932C127.412 107.505 124.799 109.009 122.188 110.444C119.661 111.822 117.266 113.429 115.032 115.244C112.928 116.949 111.136 119.006 109.736 121.324C108.365 123.612 107.68 126.389 107.68 129.656L86.1 129.652ZM86.5 175.328V148.276H108.26V175.328H86.5Z" fill="#007FFF"/>
<g opacity="0.2">
<path opacity="0.2" d="M86.1 129.652C86.1 123.252 87.1453 117.501 89.236 112.4C91.3266 107.299 95.6386 102.855 102.172 99.068C104.135 97.892 106.553 96.5587 109.428 95.068C112.386 93.5146 115.206 91.7106 117.856 89.676C120.565 87.6272 122.917 85.1444 124.816 82.328C126.73 79.4571 127.723 76.0701 127.66 72.62C127.717 70.1073 127.183 67.6162 126.1 65.348C125.101 63.3231 123.701 61.5226 121.984 60.056C120.221 58.5866 118.18 57.4862 115.984 56.82C113.732 56.1093 111.385 55.7464 109.024 55.744C106.348 55.7074 103.691 56.2023 101.208 57.2C98.9236 58.1414 96.7805 59.3946 94.84 60.924C92.9487 62.4213 91.2373 64.1327 89.74 66.024C88.3616 67.7432 87.0861 69.5424 85.92 71.412H82.968L68.86 59.652C70.4918 55.6976 72.7785 52.0464 75.624 48.852C78.4063 45.7374 81.6427 43.0606 85.224 40.912C88.8671 38.7461 92.7979 37.1059 96.9 36.04C101.123 34.9247 105.473 34.364 109.84 34.372C114.82 34.3748 119.773 35.1011 124.544 36.528C129.302 37.9283 133.733 40.2616 137.58 43.392C141.554 46.6813 144.765 50.7949 146.992 55.448C149.408 60.3494 150.616 66.1987 150.616 72.996C150.676 76.7403 150.182 80.4728 149.148 84.072C148.209 87.1854 146.785 90.131 144.928 92.8C143.089 95.4239 140.914 97.796 138.46 99.856C135.795 102.076 132.977 104.107 130.028 105.932C127.412 107.505 124.799 109.009 122.188 110.444C119.661 111.822 117.266 113.429 115.032 115.244C112.928 116.949 111.136 119.006 109.736 121.324C108.365 123.612 107.68 126.389 107.68 129.656L86.1 129.652ZM86.5 175.328V148.276H108.26V175.328H86.5Z" fill="black"/>
</g>
<path d="M83.164 129.652C83.164 123.252 84.2093 117.501 86.3 112.4C88.3907 107.299 92.704 102.855 99.24 99.068C101.2 97.892 103.617 96.5587 106.492 95.068C109.452 93.5155 112.273 91.7115 114.924 89.676C117.632 87.6262 119.984 85.1435 121.884 82.328C123.795 79.4559 124.786 76.0694 124.724 72.62C124.776 70.1133 124.239 67.6295 123.156 65.368C122.157 63.3431 120.757 61.5426 119.04 60.076C117.277 58.6066 115.236 57.5062 113.04 56.84C110.788 56.1292 108.441 55.7664 106.08 55.764C103.404 55.7197 100.746 56.2078 98.26 57.2C95.9744 58.1415 93.8301 59.3948 91.888 60.924C89.998 62.4214 88.2879 64.1328 86.792 66.024C85.4124 67.7432 84.1355 69.5423 82.968 71.412L65.912 59.652C67.5426 55.6969 69.8295 52.0456 72.676 48.852C75.4572 45.7363 78.6938 43.0593 82.276 40.912C85.918 38.7468 89.8474 37.1066 93.948 36.04C98.1744 34.9233 102.529 34.3626 106.9 34.372C111.88 34.3745 116.833 35.1008 121.604 36.528C126.362 37.9274 130.794 40.2608 134.64 43.392C138.615 46.6804 141.826 50.7942 144.052 55.448C146.468 60.3493 147.677 66.1987 147.68 72.996C147.739 76.7405 147.243 80.473 146.208 84.072C145.267 87.1866 143.839 90.1325 141.976 92.8C140.137 95.4239 137.962 97.796 135.508 99.856C132.844 102.078 130.027 104.108 127.076 105.932C124.465 107.505 121.852 109.009 119.236 110.444C116.709 111.822 114.314 113.429 112.08 115.244C109.977 116.949 108.187 119.006 106.788 121.324C105.417 123.612 104.731 126.389 104.728 129.656L83.164 129.652ZM83.564 175.328V148.276H105.3V175.328H83.564Z" fill="#007FFF"/>
<path d="M74.196 177.492C73.344 177.764 49.052 177.452 48.136 176.852C47.784 176.628 47.624 173.088 47.552 168.8V168.668C47.552 167.784 47.524 166.872 47.52 165.952C47.52 165.824 47.52 165.696 47.52 165.572C47.488 159.388 47.584 152.968 47.584 152.968L63.836 153.132L63.344 165.6L63.324 166.096L63.224 168.68V168.944C63.224 168.944 72.46 173.24 73.4 174C74.34 174.76 75.048 177.22 74.196 177.492Z" fill="#EB9481"/>
<path d="M74.196 177.492C73.344 177.764 49.052 177.452 48.136 176.852C47.784 176.628 47.624 173.088 47.552 168.8V168.668C47.552 167.784 47.524 166.872 47.52 165.952C47.52 165.824 47.52 165.696 47.52 165.572L63.348 165.616L63.328 166.112L63.228 168.696V168.96C63.228 168.96 72.46 173.24 73.4 174C74.34 174.76 75.048 177.22 74.196 177.492Z" fill="#EBEBEB"/>
<path d="M74.196 177.492C73.672 177.66 64.26 177.604 56.892 177.396C52.292 177.272 48.492 177.08 48.136 176.852C47.78 176.624 47.628 173.188 47.556 168.98C47.556 168.92 47.556 168.86 47.556 168.8C47.556 168.74 47.556 168.708 47.556 168.664L63.232 168.696V168.96C63.232 168.96 72.48 173.24 73.416 174.004C74.352 174.768 75.048 177.22 74.196 177.492Z" fill="#007FFF"/>
<path d="M73.936 176.544C69.84 176.392 53.3161 176.144 49.2561 176.316C49.2241 176.316 49.2241 176.34 49.2561 176.344C53.3121 176.584 69.8361 176.684 73.9321 176.612C74.0201 176.612 74.02 176.548 73.936 176.544Z" fill="#263238"/>
<path d="M64.968 168.76C63.368 168.44 61.388 168.66 60.14 169.792C60.092 169.836 60.14 169.904 60.208 169.888C61.7548 169.413 63.3478 169.103 64.96 168.964C64.9839 168.96 65.0057 168.948 65.0217 168.93C65.0378 168.912 65.0471 168.889 65.048 168.865C65.049 168.841 65.0415 168.818 65.0269 168.798C65.0123 168.779 64.9915 168.766 64.968 168.76V168.76Z" fill="#263238"/>
<path d="M66.124 169.476C64.524 169.156 62.544 169.376 61.296 170.508C61.248 170.552 61.296 170.62 61.364 170.604C62.9056 170.129 64.4931 169.82 66.1 169.68C66.1248 169.679 66.1483 169.669 66.1665 169.652C66.1846 169.636 66.1962 169.613 66.1991 169.588C66.2019 169.564 66.196 169.539 66.1822 169.518C66.1685 169.498 66.1478 169.483 66.124 169.476V169.476Z" fill="#263238"/>
<path d="M67.276 170.192C65.676 169.872 63.696 170.092 62.448 171.224C62.4 171.268 62.448 171.336 62.516 171.32C64.063 170.846 65.6559 170.538 67.268 170.4C67.2956 170.401 67.3225 170.391 67.3427 170.372C67.363 170.354 67.3749 170.328 67.376 170.3C67.3771 170.272 67.3671 170.246 67.3484 170.225C67.3296 170.205 67.3036 170.193 67.276 170.192V170.192Z" fill="#263238"/>
<path d="M67.112 165.272C66.488 164.392 65.304 164.772 64.624 165.328C63.4742 166.305 62.6023 167.567 62.096 168.988C62.0934 168.994 62.0923 169.001 62.0928 169.007C62.0933 169.014 62.0954 169.02 62.099 169.026C62.1026 169.031 62.1074 169.036 62.1132 169.039C62.1189 169.042 62.1254 169.044 62.132 169.044C62.132 169.168 62.244 169.3 62.384 169.248C63.72 168.772 65.208 168.448 66.36 167.56C67.032 167.052 67.7 166.108 67.112 165.272ZM64.26 168.112C63.608 168.364 62.948 168.58 62.308 168.852C62.804 168.14 63.264 167.412 63.832 166.748C64.1013 166.427 64.3898 166.122 64.696 165.836C65.184 165.408 67.096 164.504 66.784 166.268C66.616 167.24 65.04 167.816 64.26 168.112V168.112Z" fill="#263238"/>
<path d="M58.004 168.512C59.324 169.096 60.852 169.088 62.264 169.244C62.408 169.244 62.484 169.104 62.46 168.984C62.4662 168.982 62.4719 168.979 62.4766 168.974C62.4813 168.969 62.4849 168.964 62.4872 168.958C62.4895 168.952 62.4904 168.945 62.4899 168.939C62.4893 168.932 62.4873 168.926 62.484 168.92C61.6614 167.656 60.5224 166.628 59.18 165.94C58.38 165.54 57.148 165.46 56.748 166.46C56.348 167.46 57.232 168.172 58.004 168.512ZM57.292 167.352C56.588 165.708 58.656 166.152 59.224 166.456C59.5909 166.66 59.9425 166.889 60.276 167.144C60.9611 167.675 61.618 168.241 62.244 168.84C61.556 168.72 60.864 168.664 60.172 168.568C59.348 168.46 57.7 168.26 57.3 167.352H57.292Z" fill="#263238"/>
<path d="M56.9 177.396C52.3 177.272 48.5 177.08 48.144 176.852C47.788 176.624 47.636 173.188 47.564 168.98C49.444 170.664 54.132 174.844 56.9 177.396Z" fill="#263238"/>
<path d="M42.596 82.992C42.596 82.992 46.244 124.04 46.836 127.172C46.976 127.888 47.06 131.768 47.116 136.752C47.24 147.636 47.168 167.26 47.168 167.26H64.292C64.292 167.26 63.784 133.26 63.024 127C62.264 120.74 57.424 83 57.424 83L42.596 82.992Z" fill="#37474F"/>
<path d="M63.516 164.276C60.844 164.22 61.612 164.2 58.94 164.172C57.632 164.172 49.04 164.088 47.816 164.288C47.8085 164.288 47.8014 164.291 47.7962 164.296C47.7909 164.301 47.788 164.309 47.788 164.316C47.788 164.323 47.7909 164.331 47.7962 164.336C47.8014 164.341 47.8085 164.344 47.816 164.344C49.04 164.544 57.632 164.472 58.94 164.456C61.612 164.432 60.844 164.412 63.516 164.356C63.5266 164.356 63.5367 164.352 63.5442 164.344C63.5518 164.337 63.556 164.327 63.556 164.316C63.556 164.305 63.5518 164.295 63.5442 164.288C63.5367 164.28 63.5266 164.276 63.516 164.276V164.276Z" fill="#263238"/>
<path d="M50.42 144.84C50.3987 142.355 50.38 139.871 50.364 137.388C50.364 134.988 50.364 132.588 50.236 130.188C50.004 125.32 49.036 120.536 48.316 115.724C47.596 110.912 47.028 106.08 46.496 101.244C45.9 95.82 45.376 90.384 44.82 84.956C44.82 84.92 44.756 84.92 44.76 84.956C45.56 94.652 46.468 104.344 47.808 113.98C48.144 116.38 48.5093 118.772 48.904 121.156C49.304 123.556 49.704 125.988 49.892 128.432C50.08 130.876 50.108 133.232 50.132 135.632C50.1613 138.117 50.1867 140.6 50.208 143.08C50.26 148.592 50.312 157.08 50.368 162.592C50.3722 162.611 50.3825 162.627 50.3974 162.639C50.4124 162.651 50.4309 162.658 50.45 162.658C50.4691 162.658 50.4877 162.651 50.5026 162.639C50.5175 162.627 50.5279 162.611 50.532 162.592C50.5 157.648 50.456 149.756 50.42 144.84Z" fill="#263238"/>
<path d="M38.984 82.992C38.984 82.992 46.244 124.04 46.836 127.172C46.976 127.888 47.06 131.768 47.116 136.752L55.3 82.992H38.984Z" fill="#263238"/>
<path d="M54.312 178.94C53.444 179.152 29.232 177.116 28.36 176.456C28.024 176.208 28.116 172.664 28.36 168.384C28.36 168.34 28.36 168.292 28.36 168.248C28.408 167.368 28.46 166.46 28.524 165.54L28.548 165.14C28.948 158.968 29.504 152.572 29.504 152.572L45.7 153.908L44.328 166.308L44.276 166.8L43.996 169.372L43.968 169.636C43.968 169.636 52.884 174.56 53.768 175.388C54.652 176.216 55.18 178.728 54.312 178.94Z" fill="#EB9481"/>
<path d="M54.312 178.94C53.444 179.152 29.232 177.116 28.36 176.456C28.024 176.208 28.116 172.664 28.36 168.384C28.36 168.34 28.36 168.292 28.36 168.248C28.408 167.368 28.46 166.46 28.524 165.54L28.548 165.14L44.328 166.304L44.276 166.796L43.996 169.368L43.968 169.632C43.968 169.632 52.884 174.556 53.768 175.384C54.652 176.212 55.18 178.728 54.312 178.94Z" fill="#EBEBEB"/>
<path d="M54.312 178.94C53.444 179.152 29.232 177.116 28.36 176.456C28.024 176.208 28.116 172.664 28.36 168.384C28.36 168.34 28.36 168.292 28.36 168.248L43.996 169.388L43.968 169.652C43.968 169.652 52.884 174.576 53.768 175.404C54.652 176.232 55.18 178.728 54.312 178.94Z" fill="#007FFF"/>
<path d="M54.1 177.976C50.028 177.532 33.56 176.132 29.5 176C29.468 176 29.464 176.024 29.5 176.028C33.524 176.556 50.004 177.824 54.096 178.028C54.196 178.048 54.204 178 54.1 177.976Z" fill="#263238"/>
<path d="M45.724 169.576C44.124 169.144 42.16 169.224 40.836 170.264C40.784 170.304 40.836 170.38 40.896 170.368C42.4704 170.001 44.0796 169.804 45.696 169.78C45.7211 169.78 45.7452 169.771 45.764 169.754C45.7829 169.738 45.7951 169.715 45.7985 169.69C45.8019 169.665 45.7963 169.64 45.7826 169.619C45.7689 169.598 45.7481 169.583 45.724 169.576V169.576Z" fill="#263238"/>
<path d="M46.828 170.372C45.228 169.94 43.26 170.02 41.936 171.06C41.888 171.1 41.936 171.176 41.996 171.164C43.5704 170.797 45.1796 170.6 46.796 170.576C46.8214 170.577 46.8463 170.568 46.8659 170.552C46.8855 170.536 46.8985 170.513 46.9024 170.488C46.9064 170.463 46.901 170.437 46.8873 170.416C46.8736 170.395 46.8525 170.379 46.828 170.372V170.372Z" fill="#263238"/>
<path d="M47.928 171.168C46.328 170.736 44.36 170.816 43.036 171.856C42.988 171.896 43.036 171.972 43.1 171.96C44.6743 171.592 46.2836 171.395 47.9 171.372C47.9251 171.372 47.9492 171.363 47.9681 171.346C47.9869 171.33 47.9991 171.307 48.0025 171.282C48.0059 171.257 48.0003 171.232 47.9866 171.211C47.9729 171.19 47.9521 171.175 47.928 171.168V171.168Z" fill="#263238"/>
<path d="M48.1 166.252C47.544 165.328 46.336 165.62 45.616 166.128C44.3927 167.018 43.4266 168.216 42.816 169.6C42.816 169.632 42.816 169.652 42.848 169.66C42.8443 169.691 42.8481 169.723 42.8589 169.752C42.8697 169.782 42.8873 169.808 42.9103 169.83C42.9333 169.851 42.961 169.867 42.9912 169.876C43.0214 169.884 43.0532 169.886 43.084 169.88C44.448 169.5 45.96 169.264 47.168 168.476C47.904 168 48.636 167.124 48.1 166.252ZM45.056 168.88C44.388 169.084 43.716 169.252 43.056 169.48C43.5776 168.785 44.1343 168.118 44.724 167.48C45.0139 167.177 45.3239 166.893 45.652 166.632C46.168 166.232 48.136 165.468 47.704 167.208C47.476 168.176 45.86 168.64 45.064 168.88H45.056Z" fill="#263238"/>
<path d="M38.796 168.836C40.072 169.512 41.596 169.612 42.992 169.864C43.136 169.892 43.224 169.744 43.208 169.624C43.2142 169.622 43.2199 169.618 43.2246 169.614C43.2293 169.609 43.233 169.604 43.2353 169.598C43.2376 169.592 43.2385 169.585 43.2379 169.579C43.2373 169.572 43.2353 169.566 43.232 169.56C42.5037 168.24 41.4398 167.137 40.148 166.36C39.388 165.916 38.148 165.736 37.688 166.704C37.228 167.672 38.052 168.44 38.796 168.836ZM38.168 167.636C37.58 165.944 39.612 166.532 40.168 166.876C40.5182 167.108 40.8523 167.363 41.168 167.64C41.8141 168.218 42.4297 168.83 43.012 169.472C42.332 169.304 41.648 169.196 40.964 169.072C40.14 168.876 38.5 168.564 38.168 167.628V167.636Z" fill="#263238"/>
<path d="M44.688 168.184L27.58 167.46C27.58 167.46 32.252 129.916 32.336 127.6C32.56 121.6 36.54 82.964 36.54 82.964H57.436C57.436 82.964 56.116 91.888 53.864 97.544C52.3482 98.0745 50.8846 98.7441 49.492 99.544C49.492 99.544 47.532 125.1 47.46 128.288C47.3 134.6 44.688 168.184 44.688 168.184Z" fill="#37474F"/>
<path d="M44.232 165.048C41.568 164.88 42.336 164.892 39.664 164.752C38.36 164.684 29.776 164.248 28.548 164.396C28.52 164.396 28.52 164.444 28.548 164.452C29.748 164.704 38.352 164.996 39.656 165.036C42.328 165.124 41.564 165.072 44.236 165.128C44.2466 165.128 44.2566 165.123 44.2637 165.115C44.2709 165.107 44.2746 165.097 44.274 165.086C44.2735 165.075 44.2688 165.065 44.2609 165.058C44.253 165.051 44.2426 165.048 44.232 165.048V165.048Z" fill="#263238"/>
<path d="M38.072 85.268C37.296 95 36.5 104.736 35.608 114.468C34.716 124.2 33.672 133.972 32.408 143.688C31.7 149.108 30.9 156.752 30.056 162.16C30.056 162.196 30.104 162.212 30.112 162.16C31.836 152.56 33.104 140.624 34.18 130.924C35.256 121.224 36.14 111.496 36.928 101.768C37.372 96.264 37.772 90.756 38.196 85.252C38.2 85.2 38.1 85.2 38.072 85.268Z" fill="#263238"/>
<path d="M54.608 97.168C52.8358 97.817 51.124 98.6201 49.492 99.568C49.4782 99.5743 49.4675 99.5859 49.4623 99.6002C49.457 99.6144 49.4576 99.6302 49.464 99.644C49.4704 99.6578 49.482 99.6685 49.4962 99.6737C49.5105 99.679 49.5262 99.6783 49.54 99.672C51.264 98.932 53.02 98.224 54.7 97.388C54.7292 97.3758 54.7523 97.3525 54.7643 97.3232C54.7763 97.294 54.7762 97.2612 54.764 97.232C54.7518 97.2028 54.7285 97.1797 54.6993 97.1677C54.67 97.1557 54.6372 97.1558 54.608 97.168Z" fill="#263238"/>
<path d="M55.156 85.34C55.156 85.28 55.048 85.268 55.048 85.34C55.048 87.384 54.932 89.184 54.76 91.1C54.68 91.988 53.96 96.892 52.424 96.536C52.168 96.476 52.024 96.22 51.996 95.832C51.999 95.3239 52.0675 94.8184 52.2 94.328C52.368 93.3 52.508 92.272 52.6 91.232C52.7788 89.3003 52.7573 87.3553 52.536 85.428C52.5329 85.4171 52.5264 85.4075 52.5174 85.4007C52.5083 85.3939 52.4973 85.3903 52.486 85.3903C52.4747 85.3903 52.4638 85.3939 52.4547 85.4007C52.4457 85.4075 52.4391 85.4171 52.436 85.428C52.4816 88.1026 52.3251 90.7769 51.968 93.428C51.776 94.704 51.132 96.628 52.468 96.82C53.804 97.012 54.708 93.804 54.868 92.924C55.2926 90.4192 55.3894 87.8698 55.156 85.34V85.34Z" fill="#263238"/>
<path d="M52.4641 96.66C52.3256 96.9901 52.2107 97.3296 52.1201 97.676C52.0191 97.9429 51.9702 98.2267 51.9761 98.512C51.9761 98.568 52.0521 98.572 52.0801 98.536C52.2391 98.2887 52.3605 98.0191 52.4401 97.736C52.5561 97.42 52.6801 97.108 52.7881 96.788C52.805 96.745 52.8043 96.6971 52.7859 96.6547C52.7675 96.6123 52.733 96.579 52.6901 96.562C52.6471 96.545 52.5992 96.5458 52.5568 96.5642C52.5144 96.5826 52.481 96.617 52.4641 96.66Z" fill="#263238"/>
<path d="M45.496 86.944C45.5009 86.7302 45.4794 86.5166 45.432 86.308C45.429 86.3021 45.4244 86.2972 45.4187 86.2937C45.4131 86.2903 45.4066 86.2885 45.4 86.2885C45.3934 86.2885 45.3869 86.2903 45.3813 86.2937C45.3756 86.2972 45.371 86.3021 45.368 86.308C45.3257 86.4891 45.3016 86.6741 45.296 86.86C45.296 87.072 45.248 87.26 45.224 87.492C45.1796 87.9247 45.1047 88.3538 45 88.776C44.8053 89.573 44.399 90.3027 43.824 90.888C43.2506 91.4522 42.5707 91.8968 41.824 92.196C40.9976 92.4886 40.1548 92.7331 39.3 92.928C39.2915 92.928 39.2834 92.9314 39.2774 92.9374C39.2714 92.9434 39.268 92.9515 39.268 92.96C39.268 92.9685 39.2714 92.9766 39.2774 92.9826C39.2834 92.9886 39.2915 92.992 39.3 92.992C40.2465 92.9901 41.1836 92.8054 42.06 92.448C42.8369 92.1565 43.5441 91.7055 44.136 91.124C44.7269 90.5232 45.1419 89.772 45.336 88.952C45.4339 88.5292 45.4902 88.0978 45.504 87.664C45.5153 87.424 45.5127 87.1836 45.496 86.944Z" fill="#263238"/>
<path d="M65.948 47.832C67.236 49.388 68.636 53.592 68.584 54.74C68.532 55.888 61.456 58.496 60.456 57.872C59.456 57.248 55.52 51.688 55.484 49.628C55.448 47.568 64.612 46.224 65.948 47.832Z" fill="#EB9481"/>
<path d="M55.3 44.976C54.652 44.3 52.556 42.28 51.624 43.192C51.04 43.76 52.448 45.316 53.04 45.932C54.26 47.196 55.204 49.432 55.644 50.524C56.084 51.616 58.144 49.46 58.144 49.46C58.144 49.46 56.992 46.732 55.3 44.976Z" fill="#EB9481"/>
<path d="M57.02 51.744C57.02 51.744 57.744 53.688 58.924 53.644C60.104 53.6 59.804 51.928 59.788 51.808C59.824 51.912 60.536 53.68 61.72 53.516C62.904 53.352 62.4 51.708 62.364 51.604C62.428 51.688 63.34 52.804 64.208 52.472C65.704 51.904 63.46 48.996 63.676 47.72C63.676 47.72 65.884 47.844 65.948 47.832C65.948 47.832 63.868 45.032 62.128 44.824C61.8747 44.7889 61.6172 44.8421 61.3986 44.9747C61.18 45.1073 61.0138 45.3112 60.928 45.552C60.928 45.552 60.356 44.572 59.42 44.672C58.94 44.724 58.596 45.54 58.596 45.54C58.4556 45.3246 58.2584 45.1523 58.0261 45.0421C57.7938 44.932 57.5355 44.8883 57.28 44.916C56.62 45.024 56.292 45.848 56.256 46.168C55.976 48.616 57.02 51.744 57.02 51.744Z" fill="#EB9481"/>
<path d="M56.332 45.944C56.332 45.944 56.304 45.944 56.3 45.944C55.9393 47.9321 56.1918 49.9828 57.024 51.824C57.052 51.88 57.156 51.86 57.136 51.792C56.5871 49.8917 56.3163 47.9219 56.332 45.944V45.944Z" fill="#263238"/>
<path d="M58.592 45.512C58.592 45.488 58.556 45.488 58.552 45.512C58.1791 47.7073 58.6048 49.9635 59.752 51.872C59.796 51.94 59.9 51.956 59.856 51.872C59.124 50.544 58.552 47.364 58.592 45.512Z" fill="#263238"/>
<path d="M62.5001 51.708C61.4041 49.828 61.0161 47.788 60.9241 45.632C60.9241 45.604 60.8841 45.608 60.8761 45.632C60.6361 46.7 60.8401 48.064 61.0881 49.116C61.3005 50.0946 61.7652 51.0006 62.4361 51.744C62.4561 51.776 62.5001 51.748 62.5001 51.708Z" fill="#263238"/>
<path d="M57.02 51.744C57.1941 52.1032 57.4002 52.4459 57.636 52.768C57.8526 53.0905 58.1507 53.35 58.5 53.52C58.6661 53.5837 58.8499 53.5837 59.016 53.52C59.1859 53.4592 59.3374 53.3559 59.456 53.22C59.5609 53.0743 59.6343 52.9084 59.6715 52.7327C59.7087 52.5571 59.7088 52.3757 59.672 52.2L59.524 51.336L59.964 52.096C60.1564 52.4358 60.4022 52.7424 60.692 53.004C60.8186 53.1325 60.9711 53.2325 61.1394 53.2973C61.3078 53.3621 61.4879 53.3903 61.668 53.38C61.8358 53.3698 61.9949 53.3023 62.1187 53.1886C62.2426 53.075 62.3235 52.9222 62.348 52.756C62.3944 52.3821 62.3463 52.0025 62.208 51.652L61.852 50.676L62.504 51.476C62.6854 51.6993 62.8937 51.8995 63.124 52.072C63.3378 52.2412 63.5964 52.3441 63.868 52.368C63.9905 52.3736 64.1121 52.3451 64.2195 52.2858C64.3268 52.2265 64.4156 52.1387 64.476 52.032C64.5703 51.7761 64.5911 51.499 64.536 51.232C64.4214 50.6417 64.2609 50.0613 64.056 49.496C63.96 49.208 63.864 48.916 63.784 48.62C63.6859 48.3294 63.6505 48.0213 63.68 47.716C63.6854 48.0183 63.7478 48.3168 63.864 48.596C63.968 48.88 64.084 49.16 64.2 49.444C64.4482 50.0098 64.6424 50.5977 64.78 51.2C64.8623 51.5236 64.8484 51.8642 64.74 52.18C64.6619 52.3456 64.5368 52.4847 64.3804 52.58C64.224 52.6752 64.043 52.7225 63.86 52.716C63.522 52.6969 63.1974 52.5771 62.928 52.372C62.6677 52.1856 62.4324 51.9664 62.228 51.72L62.524 51.544C62.6965 51.9542 62.7586 52.4024 62.704 52.844C62.6674 53.0897 62.5457 53.3148 62.36 53.48C62.1749 53.634 61.9477 53.7288 61.708 53.752C61.4793 53.7661 61.2502 53.7309 61.0363 53.6487C60.8224 53.5666 60.6286 53.4395 60.468 53.276C60.1463 52.9876 59.8758 52.6468 59.668 52.268L59.96 52.164C59.9974 52.3833 59.9868 52.6081 59.9288 52.8229C59.8708 53.0377 59.7668 53.2373 59.624 53.408C59.4699 53.5687 59.2771 53.6872 59.064 53.752C58.8471 53.8189 58.6129 53.8018 58.408 53.704C58.0402 53.5028 57.7365 53.202 57.532 52.836C57.3206 52.4925 57.1488 52.1262 57.02 51.744V51.744Z" fill="#263238"/>
<path d="M59.62 57.044C59.62 57.044 51.992 53.144 54.98 50.912C55.864 50.248 60.3 48.58 60.652 49.464C61.108 50.604 59.384 51.648 58.2 52.128C58.2 52.128 60.98 53.092 60.888 55.224C60.8649 55.6147 60.7342 55.9915 60.5105 56.3127C60.2867 56.6338 59.9785 56.8869 59.62 57.044V57.044Z" fill="#EB9481"/>
<path d="M54.744 51.112C55.0588 50.8092 55.4175 50.5557 55.808 50.36C56.196 50.1532 56.5968 49.9715 57.008 49.816C57.8248 49.4952 58.668 49.2463 59.528 49.072C59.7567 49.0241 59.9913 49.0106 60.224 49.032C60.3648 49.0407 60.5017 49.0817 60.624 49.152C60.6876 49.1888 60.7444 49.2362 60.792 49.292C60.8391 49.3476 60.8757 49.4113 60.9 49.48C60.992 49.7264 60.992 49.9976 60.9 50.244C60.8157 50.4687 60.691 50.6762 60.532 50.856C60.2306 51.197 59.8719 51.4827 59.472 51.7C59.0874 51.9202 58.6861 52.1101 58.272 52.268V51.984C58.5854 52.1064 58.8867 52.2577 59.172 52.436C59.459 52.609 59.7271 52.8114 59.972 53.04C60.2134 53.2749 60.4183 53.5446 60.58 53.84C60.7437 54.1277 60.851 54.444 60.896 54.772C60.8113 54.4601 60.6762 54.1642 60.496 53.896C60.312 53.6362 60.0941 53.4021 59.848 53.2C59.601 52.9936 59.3329 52.8139 59.048 52.664C58.7712 52.5115 58.4806 52.3856 58.18 52.288L57.808 52.172L58.168 52.004C58.5581 51.835 58.9363 51.6399 59.3 51.42C59.6594 51.2126 59.9835 50.9493 60.26 50.64C60.3925 50.5119 60.49 50.352 60.5432 50.1756C60.5964 49.9991 60.6036 49.812 60.564 49.632C60.476 49.352 60 49.364 59.596 49.424C59.192 49.484 58.764 49.592 58.344 49.696C57.924 49.8 57.512 49.916 57.1 50.048C56.2643 50.2784 55.4695 50.6374 54.744 51.112V51.112Z" fill="#263238"/>
<path d="M50.8401 62.564C57.5841 70.888 67.3881 76.28 69.8081 74.524C72.2281 72.768 64.0721 63.576 63.9321 63.44C63.4561 62.984 59.8481 61.108 53.2961 58.348C46.8681 55.64 47.8281 58.848 50.8401 62.564Z" fill="#EB9481"/>
<path d="M60.9 61.6L55.82 68.28C55.82 68.28 51.556 63.88 49.3 60.968C47.044 58.056 47.268 55.792 52.316 57.672C55.2711 58.766 58.1404 60.079 60.9 61.6V61.6Z" fill="#007FFF"/>
<path d="M55.336 66.748C55.956 65.836 56.604 64.94 57.268 64.064C57.6 63.632 57.92 63.192 58.26 62.764C58.6 62.336 58.988 61.908 59.336 61.468C59.36 61.436 59.408 61.468 59.384 61.5C59.064 61.94 58.776 62.4 58.456 62.84C58.136 63.28 57.784 63.736 57.444 64.184C56.7747 65.064 56.0854 65.928 55.376 66.776C55.356 66.8 55.3 66.776 55.336 66.748Z" fill="#263238"/>
<path d="M58.2521 65.072L55.8201 68.272C55.8201 68.272 51.5561 63.872 49.3001 60.96L49.0841 60.676L48.9921 60.544L48.8521 60.34C48.7321 60.164 48.6241 59.992 48.5281 59.824C48.4921 59.764 48.4601 59.704 48.4281 59.644C48.2612 59.3404 48.1272 59.0199 48.0281 58.688C47.9986 58.5856 47.9759 58.4814 47.9601 58.376C47.9601 58.324 47.9601 58.276 47.9601 58.228C50.1761 59.764 55.3761 63.128 58.2521 65.072Z" fill="#263238"/>
<path d="M58.456 87.092C58.456 87.092 35.308 87.492 35.172 87.348C34.812 86.948 39.488 63.112 44.324 58.2C46.032 56.464 49.556 57.172 50.144 57.456C51.5 58.112 52.776 59.528 53.844 62.152C55.98 67.4 58.748 86.716 58.456 87.092Z" fill="#007FFF"/>
<path opacity="0.1" d="M51.3 58.24H44.288L44.324 58.2C44.4872 58.0349 44.6683 57.8887 44.864 57.764H50.684C50.9019 57.9057 51.1079 58.0649 51.3 58.24V58.24ZM52.072 59.04H43.628C43.516 59.188 43.408 59.348 43.3 59.516H52.44C52.324 59.348 52.204 59.2 52.1 59.04H52.072ZM52.944 60.316H42.816C42.728 60.472 42.64 60.632 42.556 60.796H53.216C53.132 60.632 53.044 60.468 52.952 60.316H52.944ZM53.596 61.596H42.152L41.924 62.072H53.808C53.744 61.908 53.676 61.748 53.604 61.6L53.596 61.596ZM54.104 62.872H41.572L41.368 63.348H54.268C54.216 63.2 54.164 63.024 54.1 62.872H54.104ZM54.504 64.148H41.044C40.984 64.308 40.92 64.464 40.856 64.628H54.644L54.504 64.148ZM54.848 65.424H40.56C40.504 65.584 40.444 65.74 40.388 65.904H54.976C54.9254 65.7413 54.8854 65.5813 54.856 65.424H54.848ZM55.16 66.704H40.1C40.044 66.86 39.992 67.02 39.94 67.18H55.268L55.16 66.704ZM55.448 67.98H39.7C39.648 68.136 39.6 68.296 39.548 68.456H55.58C55.524 68.296 55.492 68.136 55.456 68L55.448 67.98ZM55.72 69.256H39.3C39.248 69.412 39.2 69.572 39.152 69.736H55.848C55.796 69.576 55.764 69.416 55.728 69.256H55.72ZM55.98 70.532H38.9C38.852 70.692 38.804 70.852 38.76 71.012H56.1L55.98 70.532ZM56.228 71.812H38.524C38.476 71.972 38.432 72.128 38.388 72.288H56.324C56.296 72.128 56.268 71.968 56.236 71.812H56.228ZM56.464 73.088H38.168C38.124 73.248 38.08 73.408 38.04 73.564H56.56C56.532 73.404 56.5 73.248 56.472 73.088H56.464ZM56.692 74.364H37.828C37.784 74.524 37.744 74.684 37.704 74.844H56.784C56.76 74.684 56.732 74.524 56.7 74.364H56.692ZM56.92 75.644H37.496C37.46 75.804 37.42 75.96 37.38 76.12H57.004C56.98 75.964 56.952 75.804 56.928 75.644H56.92ZM57.128 76.92H37.18C37.144 77.08 37.104 77.24 37.068 77.396H57.216C57.192 77.24 57.164 77.08 57.136 76.92H57.128ZM57.336 78.196H36.876C36.84 78.36 36.804 78.52 36.764 78.676H57.42C57.396 78.516 57.372 78.36 57.344 78.196H57.336ZM57.54 79.472H36.584C36.548 79.632 36.512 79.796 36.476 79.952H57.616C57.592 79.796 57.568 79.636 57.548 79.472H57.54ZM57.728 80.752H36.3C36.268 80.912 36.232 81.072 36.2 81.228H57.8L57.728 80.752ZM57.912 82.028H36.028C35.996 82.192 35.964 82.348 35.932 82.504H57.988C57.964 82.348 57.944 82.188 57.92 82.028H57.912ZM58.088 83.304H35.776C35.7387 83.4693 35.7067 83.6293 35.68 83.784H58.16C58.14 83.628 58.1 83.468 58.1 83.304H58.088ZM58.248 84.58H35.532C35.5 84.748 35.472 84.908 35.444 85.06H58.316C58.3 84.908 58.28 84.748 58.256 84.58H58.248ZM58.396 85.86H35.3C35.272 86.032 35.252 86.192 35.228 86.336H58.4281C58.4361 86.196 58.42 86.036 58.404 85.86H58.396ZM35.148 87.136C35.1303 87.2055 35.1303 87.2784 35.148 87.348C35.256 87.456 49.612 87.236 55.728 87.136H35.148Z" fill="#030402"/>
<path d="M45.644 61.088C44.084 63.228 36.084 72.072 35.788 72.892C35.492 73.712 37.344 75.524 37.312 75.864C37.192 77.248 34.204 86.456 33.008 85.52C31.432 84.288 24.76 75.464 25.704 71.644C26.648 67.824 42.228 58.652 44.7 57.856C47.172 57.06 47.184 58.976 45.644 61.088Z" fill="#EB9481"/>
<path d="M39.36 69.14L34.816 62.76C34.816 62.76 39.9 59.424 43.3 58C46.7 56.576 48.376 57.368 45.268 61.764C43.4512 64.341 41.4782 66.8043 39.36 69.14V69.14Z" fill="#007FFF"/>
<path d="M36.16 62.344C36.88 63.1786 37.58 64.032 38.26 64.904C38.596 65.332 38.936 65.756 39.26 66.192C39.584 66.628 39.904 67.116 40.244 67.564C40.268 67.596 40.22 67.636 40.196 67.604C39.852 67.204 39.484 66.804 39.14 66.364C38.796 65.924 38.444 65.484 38.1 65.044C37.42 64.172 36.76 63.28 36.124 62.376C36.1 62.352 36.14 62.32 36.16 62.344Z" fill="#263238"/>
<path d="M39.352 69.172C40.048 68.248 40.868 67.424 41.62 66.548C42.372 65.672 43.12 64.768 43.836 63.856C43.836 63.856 43.888 63.856 43.872 63.88C43.54 64.356 43.216 64.836 42.868 65.3C42.696 65.528 42.516 65.752 42.332 65.976L42.6 65.756C42.8742 65.5499 43.1586 65.3576 43.452 65.18C43.452 65.18 43.484 65.18 43.452 65.204C43.1975 65.4395 42.9304 65.6612 42.652 65.868C42.452 66.02 42.252 66.16 42.04 66.3L41.72 66.7C41.0219 67.6013 40.2441 68.438 39.396 69.2C39.372 69.236 39.328 69.2 39.352 69.172Z" fill="#263238"/>
<path d="M36.92 89.016C37.988 88.292 36.52 87.444 36.52 87.444C36.52 87.444 38.92 88.156 39.72 86.984C40.52 85.812 38.696 84.892 38.568 84.82C38.696 84.86 40.92 85.452 41.616 84.192C42.312 82.932 40.36 82.228 40.232 82.192C40.364 82.192 42.096 82.116 42.408 81.036C42.94 79.184 37.964 78.968 36.892 77.836C36.892 77.836 37.372 75.388 37.412 75.32C37.0902 75.8694 36.5907 76.2926 35.996 76.52C34.92 76.824 33.952 77 33.516 77.516C33.3126 77.7418 33.1872 78.027 33.1584 78.3296C33.1296 78.6321 33.1989 78.9359 33.356 79.196C33.356 79.196 31.996 79.04 31.416 80.016C31.12 80.516 31.66 81.44 31.66 81.44C31.3523 81.418 31.0444 81.481 30.77 81.6221C30.4956 81.7631 30.2652 81.9769 30.104 82.24C29.732 82.96 30.332 83.772 30.332 83.772C30.332 83.772 29.244 84.172 29.104 85.036C28.836 86.768 34.632 90.56 36.92 89.016Z" fill="#EB9481"/>
<path d="M30.428 83.92C30.428 83.92 30.384 83.92 30.4 83.948C32.058 85.7341 34.2206 86.973 36.6 87.5C36.676 87.5 36.732 87.396 36.652 87.364C34.4214 86.5236 32.3248 85.3635 30.428 83.92V83.92Z" fill="#263238"/>
<path d="M31.644 81.424C31.6414 81.4219 31.6384 81.4203 31.6352 81.4194C31.6319 81.4184 31.6285 81.4182 31.6252 81.4185C31.6219 81.4189 31.6186 81.4199 31.6157 81.4215C31.6127 81.4232 31.6101 81.4254 31.608 81.428C31.6059 81.4306 31.6044 81.4336 31.6034 81.4369C31.6025 81.4401 31.6022 81.4435 31.6026 81.4468C31.6029 81.4501 31.604 81.4534 31.6056 81.4563C31.6072 81.4593 31.6094 81.4619 31.612 81.464C33.4604 83.4129 35.9444 84.6372 38.616 84.916C38.708 84.916 38.8 84.836 38.692 84.82C36.9 84.548 33.404 82.8 31.644 81.424Z" fill="#263238"/>
<path d="M40.448 82.132C37.84 81.836 35.588 80.732 33.44 79.268C33.412 79.268 33.388 79.288 33.404 79.312C34.26 80.316 35.728 81.108 36.924 81.628C38.0223 82.1308 39.2333 82.3363 40.436 82.224C40.5 82.22 40.5 82.14 40.448 82.132Z" fill="#263238"/>
<path d="M30.28 83.772C30.0628 83.5533 29.9104 83.2786 29.8398 82.9785C29.7691 82.6784 29.7831 82.3646 29.88 82.072C30.0053 81.7965 30.2253 81.5751 30.5 81.448C30.8275 81.3348 31.1776 81.3032 31.52 81.356C31.3291 81.0869 31.2242 80.7663 31.2192 80.4363C31.2142 80.1064 31.3093 79.7828 31.492 79.508C31.6969 79.273 31.9823 79.1232 32.292 79.088C32.6456 79.0537 33.0021 79.0671 33.352 79.128C33.2063 78.9564 33.1025 78.7531 33.049 78.5344C32.9956 78.3157 32.9939 78.0875 33.044 77.868C33.1102 77.6296 33.2316 77.4101 33.3984 77.2274C33.5652 77.0446 33.7727 76.9037 34.004 76.816C34.5483 76.619 35.1133 76.4848 35.688 76.416C35.983 76.3718 36.2717 76.2925 36.548 76.18C36.8458 76.0437 37.0953 75.8206 37.264 75.54C37.296 75.492 37.296 75.54 37.264 75.584C37.152 75.7746 37.0087 75.945 36.84 76.088C36.6649 76.2405 36.4698 76.3684 36.26 76.468C35.7393 76.6644 35.2045 76.8208 34.66 76.936C34.1828 77.0631 33.7609 77.3443 33.46 77.736C33.3225 77.9433 33.2452 78.1846 33.2368 78.4332C33.2283 78.6818 33.289 78.9279 33.412 79.144C33.412 79.144 33.412 79.196 33.376 79.192C33.0566 79.1906 32.7383 79.2282 32.428 79.304C32.1707 79.3655 31.9387 79.5052 31.764 79.704C31.6022 79.9575 31.5096 80.2489 31.4956 80.5493C31.4816 80.8497 31.5465 81.1485 31.684 81.416C31.3391 81.4391 31.0014 81.5259 30.688 81.672C30.4846 81.7971 30.3209 81.9774 30.216 82.192C30.0962 82.4392 30.0473 82.7148 30.0749 82.9881C30.1024 83.2614 30.2053 83.5217 30.372 83.74C30.3736 83.7466 30.3736 83.7534 30.372 83.76V83.76C30.372 83.76 30.024 83.904 30.008 83.904C29.992 83.904 30.008 83.904 30.008 83.904C30.0959 83.8545 30.1867 83.8104 30.28 83.772V83.772Z" fill="#263238"/>
<path d="M50.136 61.004C48.864 61.472 46.376 59.74 45.292 58.228C45.22 58.124 45.148 53.624 45.044 52.736C45.02 52.552 50.792 53.424 50.792 53.424C50.6075 54.5744 50.5645 55.7431 50.664 56.904C50.68 57.032 51.364 60.556 50.136 61.004Z" fill="#EB9481"/>
<path d="M50.792 53.424C50.792 53.424 50.728 53.796 50.676 54.348C49.076 56.312 46.508 56.52 45.204 56.476C45.16 55.08 45.108 53.276 45.044 52.736C45.02 52.556 50.792 53.424 50.792 53.424Z" fill="#263238"/>
<path d="M45.068 43.148C45.068 43.148 43.228 43.86 42.852 45.7C42.476 47.54 42.852 49.492 43.004 49.592C43.156 49.692 45.068 43.148 45.068 43.148Z" fill="#263238"/>
<path d="M52.5 45.524C52.972 47.552 51.54 53.228 50.036 54.412C47.86 56.132 44.484 56.084 43.068 53.512C41.7 51.02 43.7 43.66 45.36 42.6C47.8 41.044 51.792 42.524 52.5 45.524Z" fill="#EB9481"/>
<path d="M46.792 48.712C46.792 48.712 46.82 48.736 46.816 48.752C46.736 49.152 46.708 49.604 47.044 49.796C47.044 49.796 47.044 49.82 47.044 49.816C46.612 49.68 46.652 49.068 46.792 48.712Z" fill="#263238"/>
<path d="M47.212 48.36C47.856 48.42 47.684 49.7 47.092 49.644C46.5 49.588 46.676 48.308 47.212 48.36Z" fill="#263238"/>
<path d="M44.56 48.316C44.56 48.316 44.528 48.316 44.524 48.348C44.488 48.748 44.38 49.192 44.004 49.28V49.304C44.452 49.296 44.588 48.696 44.56 48.316Z" fill="#263238"/>
<path d="M44.26 47.856C43.628 47.728 43.416 49 44.004 49.12C44.592 49.24 44.788 47.964 44.26 47.856Z" fill="#263238"/>
<path d="M44.852 50.196C44.852 50.196 44.684 50.772 44.644 51.052C45.1878 51.1315 45.7173 51.2891 46.216 51.52C46.332 51.576 46.348 51.476 46.216 51.372C45.8439 51.0697 45.3897 50.8858 44.912 50.844C44.912 50.764 45.188 49.96 45.144 49.948C44.928 49.9356 44.7113 49.9531 44.5 50C44.812 48.8 45.3 47.632 45.612 46.4C45.612 46.356 45.56 46.332 45.54 46.368C44.9629 47.5897 44.5074 48.8651 44.18 50.176C44.128 50.352 44.732 50.228 44.852 50.196Z" fill="#263238"/>
<path d="M47.7 47.924C47.548 47.828 47.428 47.712 47.3 47.604C47.172 47.496 47.004 47.396 46.944 47.204C46.9312 47.1462 46.9385 47.0858 46.9647 47.0327C46.9909 46.9796 47.0344 46.937 47.088 46.912C47.2006 46.8752 47.321 46.8695 47.4365 46.8955C47.5519 46.9216 47.6582 46.9784 47.744 47.06C47.9461 47.1956 48.089 47.4029 48.144 47.64C48.1546 47.6957 48.1482 47.7533 48.1258 47.8053C48.1033 47.8574 48.0658 47.9015 48.018 47.932C47.9703 47.9626 47.9145 47.9782 47.8578 47.9767C47.8011 47.9753 47.7462 47.9569 47.7 47.924V47.924Z" fill="#263238"/>
<path d="M43.98 46.448C44.156 46.42 44.316 46.372 44.488 46.328C44.6733 46.3122 44.8479 46.2347 44.984 46.108C45.0197 46.0608 45.039 46.0032 45.039 45.944C45.039 45.8848 45.0197 45.8272 44.984 45.78C44.8963 45.7002 44.789 45.6452 44.673 45.6206C44.557 45.596 44.4366 45.6027 44.324 45.64C44.0836 45.6802 43.8669 45.8086 43.716 46C43.6856 46.0451 43.6685 46.0979 43.6669 46.1523C43.6652 46.2067 43.679 46.2605 43.7066 46.3073C43.7343 46.3542 43.7746 46.3923 43.823 46.4172C43.8714 46.4421 43.9258 46.4528 43.98 46.448V46.448Z" fill="#263238"/>
<path d="M51.556 50.372C50.38 50.256 51.02 45.068 51.02 45.068C50.2941 45.3153 49.5347 45.4501 48.768 45.468C47.9934 45.4407 47.2245 45.3253 46.476 45.124C46.316 45.064 48.44 44.464 48.44 44.464C48.44 44.464 43.216 44.92 43.04 43.936C42.976 43.596 43.948 40.5 48.284 40.696C51.484 40.84 52.976 44.184 52.976 44.184C52.976 44.184 54.532 45.916 54.264 46.7C53.808 48.076 52.804 50.496 51.556 50.372Z" fill="#263238"/>
<path d="M50.844 50.4C50.844 50.4 52.304 48.656 53.108 49.2C53.912 49.744 52.708 52.34 51.676 52.624C51.5474 52.6687 51.4111 52.687 51.2753 52.6778C51.1395 52.6686 51.007 52.6321 50.8856 52.5704C50.7643 52.5088 50.6566 52.4234 50.569 52.3192C50.4814 52.2149 50.4158 52.0942 50.376 51.964L50.844 50.4Z" fill="#EB9481"/>
<path d="M70.3281 74.224C73.5761 71.716 70.4721 58.984 68.5841 54.296C68.0281 52.916 59.2081 55.496 59.6201 57.044C61.9761 65.8 66.7721 76.972 70.3281 74.224Z" fill="#EB9481"/>
<path d="M61.0801 61.848L62.0521 64.248C62.3841 65.048 62.7081 65.848 63.0681 66.648C63.4281 67.448 63.7761 68.22 64.1441 69C64.5121 69.78 64.9201 70.544 65.3201 71.312C64.814 70.6072 64.3531 69.8711 63.9401 69.108C63.5401 68.344 63.1401 67.56 62.7921 66.768C62.4441 65.976 62.1241 65.168 61.8361 64.344C61.5481 63.52 61.3001 62.692 61.0801 61.848Z" fill="#263238"/>
<path d="M60.5001 36.54C60.5387 36.9898 60.4431 37.441 60.2253 37.8366C60.0076 38.2321 59.6775 38.5543 59.2768 38.7623C58.876 38.9703 58.4226 39.0549 57.9738 39.0054C57.5251 38.9559 57.101 38.7744 56.7553 38.484C56.4096 38.1936 56.1577 37.8072 56.0315 37.3737C55.9053 36.9402 55.9104 36.479 56.0461 36.0484C56.1819 35.6177 56.4423 35.237 56.7943 34.9543C57.1464 34.6716 57.5743 34.4996 58.0241 34.46C58.3233 34.4336 58.6248 34.4666 58.9112 34.5569C59.1977 34.6472 59.4636 34.7931 59.6936 34.9864C59.9235 35.1796 60.1132 35.4162 60.2516 35.6828C60.39 35.9494 60.4744 36.2407 60.5001 36.54V36.54Z" fill="white"/>
<path d="M60.5 36.54C60.5495 37.1525 60.3623 37.7606 59.9768 38.2391C59.5913 38.7176 59.037 39.03 58.428 39.112C58.0964 39.1786 57.7544 39.1743 57.4246 39.0994C57.0948 39.0246 56.7845 38.8808 56.5141 38.6777C56.2437 38.4745 56.0193 38.2164 55.8556 37.9205C55.6919 37.6245 55.5926 37.2973 55.5642 36.9602C55.5359 36.6232 55.5791 36.284 55.691 35.9648C55.8029 35.6456 55.981 35.3537 56.2136 35.1082C56.4463 34.8627 56.7282 34.6691 57.0408 34.5402C57.3535 34.4112 57.6899 34.3498 58.028 34.36C58.6405 34.3391 59.2378 34.5532 59.6974 34.9586C60.157 35.3639 60.4442 35.9297 60.5 36.54V36.54ZM60.5 36.54C60.4744 36.2458 60.3895 35.9597 60.2505 35.6992C60.1114 35.4386 59.921 35.2089 59.6908 35.0239C59.4605 34.8389 59.1952 34.7024 58.9108 34.6227C58.6264 34.543 58.3288 34.5216 58.036 34.56C57.4761 34.632 56.9657 34.9175 56.6114 35.357C56.2571 35.7965 56.0864 36.3559 56.135 36.9183C56.1835 37.4807 56.4475 38.0026 56.8719 38.3749C57.2962 38.7472 57.848 38.9411 58.412 38.916C58.7074 38.9036 58.9971 38.8315 59.2638 38.704C59.5306 38.5765 59.7687 38.3963 59.9638 38.1743C60.1589 37.9522 60.3071 37.6929 60.3992 37.412C60.4914 37.1312 60.5257 36.8345 60.5 36.54V36.54Z" fill="#263238"/>
<path d="M55.532 40.752C55.5532 41.0026 55.4997 41.2539 55.3781 41.4741C55.2566 41.6943 55.0724 41.8735 54.849 41.9891C54.6256 42.1047 54.373 42.1514 54.123 42.1234C53.8731 42.0955 53.637 41.994 53.4447 41.8319C53.2524 41.6697 53.1125 41.4542 53.0426 41.2126C52.9727 40.971 52.9761 40.7141 53.0522 40.4743C53.1283 40.2346 53.2738 40.0228 53.4703 39.8658C53.6668 39.7087 53.9054 39.6134 54.156 39.592C54.3226 39.5772 54.4906 39.5955 54.6501 39.6459C54.8096 39.6963 54.9576 39.7777 55.0855 39.8855C55.2134 39.9934 55.3187 40.1254 55.3953 40.2741C55.472 40.4228 55.5184 40.5852 55.532 40.752V40.752Z" fill="white"/>
<path d="M55.532 40.752C55.5545 41.0265 55.4938 41.3014 55.3579 41.5409C55.222 41.7805 55.0171 41.9736 54.77 42.0951C54.5228 42.2166 54.2448 42.261 53.9721 42.2223C53.6994 42.1837 53.4446 42.0638 53.241 41.8784C53.0373 41.693 52.8942 41.4506 52.8302 41.1827C52.7662 40.9148 52.7843 40.6339 52.8821 40.3764C52.98 40.119 53.1531 39.8969 53.3788 39.7392C53.6046 39.5814 53.8726 39.4953 54.148 39.492C54.4946 39.4906 54.829 39.6193 55.0853 39.8526C55.3416 40.0859 55.501 40.4068 55.532 40.752V40.752ZM55.532 40.752C55.5189 40.5897 55.472 40.4319 55.3945 40.2888C55.3169 40.1456 55.2104 40.0201 55.0817 39.9204C54.953 39.8207 54.8049 39.7488 54.6469 39.7095C54.4889 39.6702 54.3245 39.6642 54.164 39.692C53.9388 39.7301 53.7295 39.833 53.5618 39.9881C53.3941 40.1432 53.2752 40.3438 53.2196 40.5654C53.164 40.7869 53.1742 41.0199 53.2488 41.2358C53.3235 41.4517 53.4594 41.6412 53.6399 41.7811C53.8205 41.921 54.0379 42.0053 54.2656 42.0237C54.4933 42.0421 54.7215 41.9937 54.9221 41.8846C55.1228 41.7754 55.2874 41.6102 55.3957 41.4091C55.504 41.2079 55.5514 40.9796 55.532 40.752V40.752Z" fill="#263238"/>
<path d="M77.564 25.916C77.7764 27.672 77.2832 29.4405 76.1927 30.8332C75.1023 32.2259 73.5037 33.1289 71.748 33.344C70.5925 33.4878 69.4196 33.3236 68.348 32.868C67.8253 33.5522 67.1519 34.1066 66.3802 34.4882C65.6084 34.8698 64.759 35.0684 63.898 35.0684C63.037 35.0684 62.1877 34.8698 61.4159 34.4882C60.6441 34.1066 59.9707 33.5522 59.448 32.868C59.2021 32.9407 58.9506 32.9928 58.696 33.024C57.825 33.1303 56.9419 32.9818 56.1536 32.5963C55.3654 32.2108 54.7059 31.605 54.255 30.8523C53.8041 30.0995 53.5812 29.2322 53.6133 28.3553C53.6455 27.4784 53.9312 26.6297 54.436 25.912C53.4531 24.6614 52.9493 23.1008 53.0154 21.5115C53.0816 19.9222 53.7134 18.4089 54.7969 17.2443C55.8803 16.0797 57.3442 15.3406 58.9246 15.1601C60.505 14.9796 62.0979 15.3697 63.416 16.26C64.0343 15.4912 64.8447 14.8994 65.7651 14.5445C66.6856 14.1896 67.6835 14.0841 68.6579 14.2388C69.6322 14.3935 70.5484 14.8028 71.3137 15.4254C72.079 16.0479 72.6662 16.8616 73.016 17.784C73.2497 17.7054 73.491 17.6518 73.736 17.624C74.4757 17.5353 75.2247 17.6742 75.8834 18.0222C76.5421 18.3701 77.0791 18.9105 77.4228 19.5714C77.7665 20.2323 77.9005 20.9823 77.8072 21.7213C77.7138 22.4604 77.3973 23.1534 76.9 23.708C77.2497 24.3991 77.4745 25.1466 77.564 25.916Z" fill="white"/>
<path d="M77.5649 25.916C77.7728 27.6714 77.2862 29.4385 76.2089 30.84C75.8477 31.2965 75.4312 31.7063 74.9689 32.06C74.0326 32.7686 72.9278 33.221 71.7634 33.3725C70.5991 33.524 69.4153 33.3694 68.3289 32.924H68.3929C67.8672 33.6212 67.1876 34.1876 66.4071 34.579C65.6265 34.9703 64.766 35.176 63.8929 35.18C63.0156 35.1831 62.1493 34.9847 61.3609 34.6C60.5728 34.2086 59.8825 33.6455 59.3409 32.952L59.4849 33C58.5542 33.281 57.5593 33.2671 56.6369 32.96C55.7102 32.6542 54.9029 32.0651 54.3289 31.276C54.0479 30.8793 53.8256 30.4441 53.6689 29.984C53.519 29.5212 53.4394 29.0384 53.4329 28.552C53.4242 27.5715 53.7205 26.6126 54.2809 25.808V26.032C53.2578 24.7511 52.7359 23.1415 52.8129 21.504C52.8563 20.2842 53.2272 19.0986 53.8867 18.0715C54.5462 17.0444 55.47 16.2138 56.5611 15.6668C57.6523 15.1198 58.8705 14.8766 60.0881 14.9627C61.3056 15.0487 62.4775 15.4609 63.4809 16.156L63.3049 16.18C63.9401 15.3981 64.771 14.7982 65.7131 14.4413C66.6552 14.0844 67.675 13.9832 68.6689 14.148C69.6567 14.3119 70.5838 14.7337 71.3564 15.3707C72.129 16.0078 72.7197 16.8375 73.0689 17.776L73.0169 17.748C73.7985 17.4938 74.6423 17.505 75.4169 17.78C75.9863 17.9837 76.4968 18.3247 76.9029 18.7728C77.309 19.221 77.5983 19.7624 77.7451 20.3492C77.8919 20.9359 77.8916 21.5498 77.7443 22.1364C77.5971 22.723 77.3074 23.2642 76.9009 23.712C77.2509 24.4016 77.4757 25.1478 77.5649 25.916ZM77.5649 25.916C77.4705 25.1469 77.2402 24.4006 76.8849 23.712C77.4285 23.1152 77.7578 22.3544 77.8208 21.5497C77.8838 20.7449 77.677 19.9421 77.2329 19.268C76.7937 18.5958 76.1437 18.0884 75.385 17.8256C74.6263 17.5628 73.8017 17.5594 73.0409 17.816H73.0009V17.776C72.6458 16.8678 72.0598 16.0681 71.3009 15.456C70.5415 14.8449 69.633 14.4473 68.6689 14.304C67.7092 14.1607 66.7287 14.271 65.8249 14.624C64.9266 14.9806 64.1386 15.5685 63.5409 16.328L63.4649 16.424L63.3609 16.352C62.0733 15.4939 60.5224 15.1219 58.9857 15.3028C57.449 15.4836 56.0268 16.2053 54.9736 17.3389C53.9204 18.4724 53.3049 19.9438 53.2374 21.4896C53.1698 23.0355 53.6546 24.5549 54.6049 25.776L54.6929 25.888L54.6089 26.004C54.0863 26.7417 53.8066 27.6239 53.8089 28.528C53.8152 28.9772 53.8866 29.4232 54.0209 29.852C54.1611 30.2799 54.3647 30.6844 54.6249 31.052C55.1542 31.7923 55.9001 32.3502 56.7597 32.649C57.6194 32.9477 58.5505 32.9725 59.4249 32.72L59.5169 32.696L59.5689 32.768C60.0779 33.4382 60.7314 33.9851 61.4809 34.368C62.622 34.946 63.9287 35.1089 65.1768 34.8286C66.4249 34.5484 67.5365 33.8424 68.3209 32.832L68.3489 32.796H68.3889C69.4547 33.257 70.6236 33.4282 71.7769 33.292C72.937 33.1494 74.0399 32.7068 74.9769 32.008C75.4384 31.661 75.855 31.2579 76.2169 30.808C76.5721 30.3477 76.869 29.8452 77.1009 29.312C77.5449 28.2387 77.7047 27.0691 77.5649 25.916V25.916Z" fill="#263238"/>
<path d="M66.16 26.124C66.1516 25.6372 66.2386 25.1534 66.416 24.7C66.6389 24.2241 67.0149 23.8368 67.484 23.6C67.648 23.5 67.844 23.392 68.084 23.268C68.3269 23.1401 68.5584 22.9915 68.776 22.824C68.9997 22.6539 69.1942 22.4485 69.352 22.216C69.5099 21.9794 69.5922 21.7004 69.588 21.416C69.5921 21.2084 69.5468 21.0027 69.456 20.816C69.3739 20.6488 69.2581 20.5003 69.116 20.38C68.9716 20.2596 68.8042 20.1698 68.624 20.116C68.4392 20.056 68.2463 20.0249 68.052 20.024C67.8297 20.0199 67.609 20.0621 67.404 20.148C67.2164 20.2252 67.0401 20.3275 66.88 20.452C66.7304 20.5771 66.5962 20.7194 66.48 20.876C66.3652 21.0171 66.2597 21.1654 66.164 21.32L64.756 20.348C64.8925 20.0232 65.0817 19.7231 65.316 19.46C65.5413 19.2005 65.8059 18.9778 66.1 18.8C66.4 18.6231 66.7231 18.4885 67.06 18.4C67.4085 18.3081 67.7676 18.2624 68.128 18.264C68.5343 18.2661 68.9382 18.3253 69.328 18.44C69.7204 18.5571 70.0859 18.7501 70.404 19.008C70.7315 19.2784 70.9963 19.6169 71.18 20C71.3871 20.454 71.4883 20.9491 71.476 21.448C71.4809 21.7562 71.4404 22.0635 71.356 22.36C71.2793 22.6171 71.1618 22.8602 71.008 23.08C70.8566 23.2968 70.6777 23.4931 70.476 23.664C70.2567 23.8477 70.024 24.0148 69.78 24.164L69.132 24.536C68.9244 24.6515 68.7276 24.7853 68.544 24.936C68.3667 25.0742 68.2163 25.2437 68.1 25.436C67.9796 25.6448 67.92 25.8831 67.928 26.124H66.16ZM66.192 29.892V27.66H67.984V29.892H66.192Z" fill="#007FFF"/>
<path d="M62.156 21.948C62.2668 22.4217 62.2804 22.9129 62.196 23.392C62.0819 23.9014 61.8002 24.3577 61.396 24.688C61.256 24.816 61.084 24.964 60.876 25.136C60.6644 25.3114 60.4677 25.5041 60.288 25.712C60.1047 25.9239 59.9575 26.1644 59.852 26.424C59.7463 26.6883 59.724 26.9786 59.788 27.256C59.8243 27.4587 59.9094 27.6496 60.036 27.812C60.1508 27.9602 60.2952 28.0828 60.46 28.172C60.626 28.261 60.8084 28.3154 60.996 28.332C61.1899 28.3496 61.3853 28.3388 61.576 28.3C61.7937 28.2583 62.0006 28.1725 62.184 28.048C62.3514 27.9348 62.5033 27.8004 62.636 27.648C62.7641 27.4952 62.8729 27.3273 62.96 27.148C63.0418 26.9857 63.1139 26.8188 63.176 26.648L64.752 27.312C64.6875 27.6583 64.5644 27.9911 64.388 28.296C64.2169 28.5939 64.0011 28.8637 63.748 29.096C63.4912 29.3317 63.2032 29.531 62.892 29.688C62.5704 29.8497 62.2287 29.9681 61.876 30.04C61.474 30.1255 61.0615 30.1511 60.652 30.116C60.2442 30.0854 59.8469 29.9725 59.484 29.784C59.1096 29.5887 58.781 29.316 58.52 28.984C58.0477 28.3224 57.8149 27.5196 57.86 26.708C57.8822 26.442 57.947 26.1814 58.052 25.936C58.1547 25.6927 58.2892 25.464 58.452 25.256C58.6284 25.0303 58.8209 24.8178 59.028 24.62C59.212 24.452 59.4 24.284 59.584 24.124C59.7618 23.9653 59.9239 23.7898 60.068 23.6C60.2086 23.4268 60.3182 23.2306 60.392 23.02C60.465 22.7907 60.4733 22.5457 60.416 22.312L62.156 21.948ZM61.356 18.268L61.816 20.452L60.06 20.82L59.6 18.636L61.356 18.268Z" fill="#007FFF"/>
</svg>
