<svg width="18" height="16" viewBox="0 0 18 16" fill="none" xmlns="http://www.w3.org/2000/svg">
<path d="M1.08331 6.79998L8.58331 11.1333C8.70999 11.2065 8.8537 11.245 8.99998 11.245C9.14626 11.245 9.28996 11.2065 9.41665 11.1333L16.9166 6.79998C17.0429 6.72672 17.1478 6.62158 17.2206 6.49507C17.2935 6.36856 17.3318 6.22513 17.3318 6.07914C17.3318 5.93315 17.2935 5.78972 17.2206 5.66321C17.1478 5.53671 17.0429 5.43156 16.9166 5.35831L9.41665 1.02498C9.28996 0.951835 9.14626 0.91333 8.99998 0.91333C8.8537 0.91333 8.70999 0.951835 8.58331 1.02498L1.08331 5.35831C0.957029 5.43156 0.852207 5.53671 0.779341 5.66321C0.706475 5.78972 0.668122 5.93315 0.668122 6.07914C0.668122 6.22513 0.706475 6.36856 0.779341 6.49507C0.852207 6.62158 0.957029 6.72672 1.08331 6.79998ZM8.99998 2.70831L14.8333 6.04164L8.99998 9.41664L3.16664 6.07498L8.99998 2.70831ZM16.0833 9.19998L8.99998 13.2916L1.91664 9.19998C1.82203 9.14453 1.7174 9.10831 1.60876 9.09338C1.50012 9.07845 1.3896 9.08512 1.28354 9.11299C1.17747 9.14086 1.07796 9.18939 0.990687 9.25579C0.903418 9.3222 0.830114 9.40518 0.774978 9.49998C0.719879 9.59509 0.684141 9.70016 0.669821 9.80914C0.655502 9.91812 0.662884 10.0289 0.691544 10.135C0.720203 10.2411 0.769573 10.3405 0.83681 10.4275C0.904047 10.5144 0.987822 10.5872 1.08331 10.6416L8.58331 14.975C8.70999 15.0481 8.8537 15.0866 8.99998 15.0866C9.14626 15.0866 9.28996 15.0481 9.41665 14.975L16.9166 10.6416C17.0121 10.5872 17.0959 10.5144 17.1631 10.4275C17.2304 10.3405 17.2798 10.2411 17.3084 10.135C17.3371 10.0289 17.3445 9.91812 17.3301 9.80914C17.3158 9.70016 17.2801 9.59509 17.225 9.49998C17.1698 9.40518 17.0965 9.3222 17.0093 9.25579C16.922 9.18939 16.8225 9.14086 16.7164 9.11299C16.6104 9.08512 16.4998 9.07845 16.3912 9.09338C16.2826 9.10831 16.1779 9.14453 16.0833 9.19998Z" fill="#34C759"/>
</svg>
