<svg width="20" height="18" viewBox="0 0 20 18" fill="none" xmlns="http://www.w3.org/2000/svg">
<path d="M10.0001 2.51099C10.5611 2.51099 11.1191 2.86499 11.5441 3.57299L17.4561 13.427C18.3071 14.842 17.6501 16 16.0001 16H4.00005C2.35005 16 1.69305 14.841 2.54405 13.427L8.45605 3.57299C8.88105 2.86499 9.43905 2.51099 10.0001 2.51099ZM10.0001 0.510986C8.70405 0.510986 7.51805 1.25099 6.74105 2.54199L0.829052 12.398C0.043052 13.707 -0.042948 15.103 0.594052 16.228C1.23105 17.353 2.47305 18 4.00005 18H16.0001C17.5271 18 18.7701 17.354 19.4061 16.229C20.0421 15.104 19.9571 13.708 19.1711 12.399L13.2591 2.54499C12.4821 1.25099 11.2961 0.510986 10.0001 0.510986Z" fill="#FFB800"/>
</svg>
